<svg xmlns="http://www.w3.org/2000/svg" viewBox="0 0 200 200" width="200" height="200">
  <defs>
    <linearGradient id="instaGradient" x1="0" x2="1" y1="0" y2="1">
      <stop offset="0" stop-color="#f58529"/>
      <stop offset="0.5" stop-color="#dd2a7b"/>
      <stop offset="1" stop-color="#8134af"/>
    </linearGradient>
  </defs>

  <!-- Kirby dots -->
  <circle cx="30" cy="50" r="7" fill="#f472b6" opacity="0.7"/>
  <circle cx="170" cy="60" r="5" fill="#facc15" opacity="0.7"/>
  <circle cx="60" cy="175" r="6" fill="#38bdf8" opacity="0.7"/>
  <circle cx="150" cy="165" r="8" fill="#34d399" opacity="0.7"/>
  <circle cx="105" cy="25" r="4" fill="#a78bfa" opacity="0.7"/>

  <!-- Bubble -->
  <circle cx="100" cy="100" r="60" fill="url(#instaGradient)" />

  <!-- Highlight -->
  <ellipse cx="75" cy="70" rx="34" ry="16" fill="#ffffff40" transform="rotate(-20 75 70)"/>

  <!-- Instagram logo -->
  <g transform="translate(100,100) scale(2)" fill="#fff">
    <path d="M10-15h-20c-2.8 0-5 2.2-5 5v20c0 2.8 2.2 5 5 5h20c2.8 0 5-2.2 5-5v-20c0-2.8-2.2-5-5-5zm-10 25c-5.5 0-10-4.5-10-10s4.5-10 10-10 10 4.5 10 10-4.5 10-10 10zm11-18c-1.1 0-2-0.9-2-2s0.9-2 2-2 2 0.9 2 2-0.9 2-2 2z"/>
    <circle cx="0" cy="0" r="6" fill="#fff"/>
  </g>
</svg>
