<svg xmlns="http://www.w3.org/2000/svg" viewBox="0 0 200 200" width="200" height="200">
  <defs>
    <linearGradient id="linkedinGradient" x1="0" x2="1" y1="0" y2="1">
      <stop offset="0" stop-color="#3b82f6"/>
      <stop offset="1" stop-color="#06b6d4"/>
    </linearGradient>
  </defs>

  <!-- Kirby dots -->
  <circle cx="26" cy="36" r="7" fill="#38bdf8" opacity="0.85"/>
  <circle cx="168" cy="46" r="5" fill="#f472b6" opacity="0.85"/>
  <circle cx="46" cy="172" r="6" fill="#a78bfa" opacity="0.85"/>
  <circle cx="152" cy="156" r="8" fill="#facc15" opacity="0.85"/>
  <circle cx="102" cy="18" r="4" fill="#34d399" opacity="0.85"/>

  <!-- Bubble -->
  <circle cx="100" cy="100" r="60" fill="url(#linkedinGradient)" />

  <!-- Gloss highlight -->
  <ellipse cx="75" cy="70" rx="34" ry="16" fill="#ffffff40" transform="rotate(-20 75 70)"/>

  <!-- Official LinkedIn "in" logo -->
  <g transform="translate(100,100) scale(1.3)">
    <path fill="#fff" d="M-14 -4h6v20h-6zm3-10a3 3 0 110 6 3 3 0 010-6zm10 10h6v2.7h.1c.8-1.5 2.7-3.1 5.7-3.1 6 0 7.1 4 7.1 9.3V16h-6v-9.2c0-2.2-.1-5.1-3.1-5.1-3.1 0-3.6 2.4-3.6 4.9V16h-6V-4z"/>
  </g>
</svg>
