<svg xmlns="http://www.w3.org/2000/svg" viewBox="0 13.5 644.3499755859375 297.5500183105469" data-asc="0.9" width="644.3499755859375" height="297.5500183105469"><defs/><g fill="#ffffff"><g transform="translate(0, 0)"><path d="M0 45L4.25 15.45L16.00 15.45L20.15 45L11.20 45L10.80 40.70L8.95 40.70L8.65 45L0 45M9 36.85L10.80 36.85L9.90 21.70L9 36.85ZM32.05 45.35Q29.90 45.35 28.70 44.42Q27.50 43.50 27.20 42.85L27.05 45L21.55 45L21.55 13.50L29.35 13.50L29.35 22.10Q29.75 21.35 30.68 20.55Q31.60 19.75 33.45 19.75Q34.70 19.75 35.93 20.15Q37.15 20.55 38 21.80Q38.85 23.05 38.85 25.55L38.85 37.30Q38.85 40.15 38.33 41.77Q37.80 43.40 36.88 44.15Q35.95 44.90 34.73 45.13Q33.50 45.35 32.05 45.35M30.20 40.10Q30.60 40.10 30.78 39.90Q30.95 39.70 31.00 39.30Q31.05 38.90 31.05 38.35L31.05 26.20Q31.05 25.35 30.83 25.02Q30.60 24.70 30.20 24.70Q29.85 24.70 29.60 25.02Q29.35 25.35 29.35 26.20L29.35 38.35Q29.35 39.20 29.53 39.65Q29.70 40.10 30.20 40.10ZM49.50 45.40Q46.85 45.40 44.90 44.83Q42.95 44.25 41.90 42.35Q40.85 40.45 40.85 36.50L40.85 26.85Q40.85 22.80 43.10 21.30Q45.35 19.80 49.50 19.80Q53.65 19.80 55.90 21.30Q58.15 22.80 58.15 26.85L58.15 36.45Q58.15 40.45 57.10 42.35Q56.05 44.25 54.10 44.83Q52.15 45.40 49.50 45.40M49.50 40.90Q49.90 40.90 50.13 40.58Q50.35 40.25 50.35 39.40L50.35 25.85Q50.35 25 50.13 24.67Q49.90 24.35 49.50 24.35Q49.15 24.35 48.90 24.67Q48.65 25 48.65 25.85L48.65 39.40Q48.65 40.25 48.90 40.58Q49.15 40.90 49.50 40.90ZM65.90 45.35Q63.70 45.35 62.50 44.60Q61.30 43.85 60.85 42.40Q60.40 40.95 60.40 38.80L60.40 20.25L68.20 20.25L68.20 38.50Q68.20 38.95 68.30 39.25Q68.40 39.55 68.60 39.73Q68.80 39.90 69.05 39.90Q69.20 39.90 69.35 39.88Q69.50 39.85 69.65 39.83Q69.80 39.80 69.90 39.75L69.90 20.25L77.70 20.25L77.70 45L71.05 45L70.45 41.75Q70 43.30 68.75 44.33Q67.50 45.35 65.90 45.35ZM89.10 45.25Q87.90 45.25 86.58 45.08Q85.25 44.90 84.13 44.33Q83 43.75 82.30 42.55Q81.60 41.35 81.60 39.25L81.60 24.75L79.15 24.75L79.15 20.90L82.30 20.25L83.35 15.75L89.40 15.75L89.40 20.25L93.60 20.25L93.60 24.75L89.40 24.75L89.40 37.90Q89.40 38.65 89.73 39.38Q90.05 40.10 91.25 40.10Q91.85 40.10 92.73 40.02Q93.60 39.95 93.60 39.95L93.60 44.55Q93.60 44.55 92.20 44.90Q90.80 45.25 89.10 45.25ZM102.95 45L102.95 15.45L113.05 15.45L115.20 30.55L117.35 15.45L127.45 15.45L127.45 45L120.50 45L120.50 24.40L117.85 45L112.55 45L109.90 24.40L109.90 45L102.95 45ZM138.35 45.40Q135.70 45.40 133.75 44.83Q131.80 44.25 130.75 42.35Q129.70 40.45 129.70 36.50L129.70 26.35Q129.70 22.55 131.95 21.15Q134.20 19.75 138.35 19.75Q142.50 19.75 144.75 21.15Q147 22.55 147 26.35L147 33.35L137.50 33.35L137.50 39.90Q137.50 40.75 137.75 41.08Q138 41.40 138.35 41.40Q138.75 41.40 138.97 41.08Q139.20 40.75 139.20 39.90L139.20 35.40L147 35.40L147 36.45Q147 40.45 145.95 42.35Q144.90 44.25 142.95 44.83Q141 45.40 138.35 45.40M137.50 30L139.20 30L139.20 25.85Q139.20 25 138.97 24.67Q138.75 24.35 138.35 24.35Q138 24.35 137.75 24.67Q137.50 25 137.50 25.85L137.50 30Z"/></g><g transform="translate(0, 65)"><path d="M0 45L0 15.45L10.10 15.45L12.25 30.55L14.40 15.45L24.50 15.45L24.50 45L17.55 45L17.55 24.40L14.90 45L9.60 45L6.95 24.40L6.95 45L0 45ZM27 45L27 15.45L41.30 15.45L41.30 21L35.30 21L35.30 26.75L40.80 26.75L40.80 33L35.30 33L35.30 39.60L41.30 39.60L41.30 45L27 45ZM43.40 45L43.40 15.45L55.40 15.45Q58.70 15.45 60.18 16.88Q61.65 18.30 61.65 20.50L61.65 25Q61.65 27.15 60.63 28.93Q59.60 30.70 56.95 31L56.95 31.10Q58.70 31.45 59.38 32.23Q60.05 33 60.50 34.80L63.10 45L54.25 45L52.55 35.30Q52.35 34.30 52.20 33.73Q52.05 33.15 51.85 33.15L51.70 33.15L51.70 45L43.40 45M51.70 27.65L52.50 27.65Q53.15 27.65 53.50 27.10Q53.85 26.55 53.85 25.20L53.85 21.95Q53.85 20.60 53.58 20.13Q53.30 19.65 52.65 19.65L51.70 19.65L51.70 27.65ZM64.60 45L64.60 15.45L71.50 15.45L75.10 29.20L75.10 15.45L82.05 15.45L82.05 45L75.20 45L71.55 32.75L71.55 45L64.60 45ZM100.75 45.40Q97.80 45.40 95.73 44.67Q93.65 43.95 92.58 42.02Q91.50 40.10 91.50 36.55L91.50 34.70Q93.60 34.70 95.68 34.70Q97.75 34.70 99.85 34.70L99.85 37.25Q99.85 38.60 99.98 39.27Q100.10 39.95 100.33 40.17Q100.55 40.40 100.90 40.40Q101.45 40.40 101.68 39.88Q101.90 39.35 101.90 37.65Q101.90 36.05 101.40 35.30Q100.90 34.55 99.73 34.05Q98.55 33.55 96.55 32.70Q94.70 31.85 93.65 30.67Q92.60 29.50 92.18 27.82Q91.75 26.15 91.75 23.90Q91.75 20.75 92.58 18.88Q93.40 17 95.40 16.17Q97.40 15.35 100.90 15.35Q105.40 15.35 107.70 17.13Q110.00 18.90 110.00 22.55L110.00 26.35Q108.00 26.35 106.03 26.35Q104.05 26.35 102.05 26.35L102.05 25.05Q102.05 23 101.93 22.32Q101.80 21.65 101.00 21.65Q100.35 21.65 100.18 22.10Q100.00 22.55 100.00 23.65Q100.00 25.10 100.58 25.85Q101.15 26.60 102.10 26.97Q103.05 27.35 104.10 27.75Q106.30 28.55 107.68 29.42Q109.05 30.30 109.70 31.88Q110.35 33.45 110.35 36.45Q110.35 39.80 109.20 41.77Q108.05 43.75 105.90 44.58Q103.75 45.40 100.75 45.40ZM121.20 45.25Q120.00 45.25 118.68 45.08Q117.35 44.90 116.23 44.33Q115.10 43.75 114.40 42.55Q113.70 41.35 113.70 39.25L113.70 24.75L111.25 24.75L111.25 20.90L114.40 20.25L115.45 15.75L121.50 15.75L121.50 20.25L125.70 20.25L125.70 24.75L121.50 24.75L121.50 37.90Q121.50 38.65 121.83 39.38Q122.15 40.10 123.35 40.10Q123.95 40.10 124.83 40.02Q125.70 39.95 125.70 39.95L125.70 44.55Q125.70 44.55 124.30 44.90Q122.90 45.25 121.20 45.25ZM131.90 45.40Q130.50 45.40 129.40 45.02Q128.30 44.65 127.65 43.60Q127.00 42.55 127.00 40.55L127.00 36.50Q127.00 34.30 128.28 32.90Q129.55 31.50 132.75 30.50Q134.20 30 134.95 29.63Q135.70 29.25 135.98 28.63Q136.25 28 136.25 26.75L136.25 25.15Q136.25 24.75 136.18 24.47Q136.10 24.20 135.93 24.02Q135.75 23.85 135.40 23.85Q134.90 23.85 134.73 24.47Q134.55 25.10 134.55 26.85L134.55 28.95L127.50 28.95L127.50 26.10Q127.50 24.25 128.05 22.82Q128.60 21.40 130.30 20.57Q132 19.75 135.40 19.75Q138.80 19.75 140.70 20.25Q142.60 20.75 143.40 22.02Q144.20 23.30 144.20 25.70L144.20 45L136.40 45L136.40 42.55Q136.15 43.80 134.83 44.60Q133.50 45.40 131.90 45.40M135.40 40.35Q136 40.35 136.13 39.80Q136.25 39.25 136.25 38L136.25 32.95Q136.15 33.15 135.80 33.33Q135.45 33.50 135.20 33.80Q134.85 34.15 134.70 34.50Q134.55 34.85 134.55 35.50L134.55 38.55Q134.55 39 134.60 39.42Q134.65 39.85 134.83 40.10Q135 40.35 135.40 40.35ZM154.85 45.40Q152.20 45.40 150.25 44.85Q148.30 44.30 147.25 42.42Q146.20 40.55 146.20 36.70L146.20 26.85Q146.20 22.85 148.45 21.35Q150.70 19.85 154.85 19.85Q159.00 19.85 161.25 21.25Q163.50 22.65 163.50 26.35L163.50 30.30L155.70 30.30L155.70 25.85Q155.70 25 155.48 24.67Q155.25 24.35 154.85 24.35Q154.50 24.35 154.25 24.67Q154.00 25 154.00 25.85L154.00 39.40Q154.00 40.25 154.25 40.58Q154.50 40.90 154.85 40.90Q155.25 40.90 155.48 40.58Q155.70 40.25 155.70 39.40L155.70 34.35L163.50 34.35L163.50 36.65Q163.50 40.55 162.45 42.42Q161.40 44.30 159.45 44.85Q157.50 45.40 154.85 45.40ZM176.35 45L173.25 30.70L177.25 20.25L184.95 20.25L180.60 30.85L184.80 45L176.35 45M165.50 45L165.50 13.50L173.30 13.50L173.30 45L165.50 45ZM193.80 45L193.80 15.45L205.40 15.45Q207.60 15.45 208.98 16.10Q210.35 16.75 211.00 17.88Q211.65 19 211.65 20.50L211.65 38.75Q211.65 41.10 210.75 42.48Q209.85 43.85 208.20 44.42Q206.55 45 204.20 45L193.80 45M202.10 41L202.85 41Q203.25 41 203.48 40.67Q203.70 40.35 203.70 39.50L203.70 21.35Q203.70 20.50 203.48 20.17Q203.25 19.85 202.85 19.85L202.10 19.85L202.10 41ZM222.30 45.40Q219.65 45.40 217.70 44.83Q215.75 44.25 214.70 42.35Q213.65 40.45 213.65 36.50L213.65 26.35Q213.65 22.55 215.90 21.15Q218.15 19.75 222.30 19.75Q226.45 19.75 228.70 21.15Q230.95 22.55 230.95 26.35L230.95 33.35L221.45 33.35L221.45 39.90Q221.45 40.75 221.70 41.08Q221.95 41.40 222.30 41.40Q222.70 41.40 222.93 41.08Q223.15 40.75 223.15 39.90L223.15 35.40L230.95 35.40L230.95 36.45Q230.95 40.45 229.90 42.35Q228.85 44.25 226.90 44.83Q224.95 45.40 222.30 45.40M221.45 30L223.15 30L223.15 25.85Q223.15 25 222.93 24.67Q222.70 24.35 222.30 24.35Q221.95 24.35 221.70 24.67Q221.45 25 221.45 25.85L221.45 30ZM236.90 45L231.95 20.25L240.00 20.25L242.00 36.30L242.10 36.30L243.75 20.25L251.15 20.25L246.25 45L236.90 45ZM260.55 45.40Q257.90 45.40 255.95 44.83Q254.00 44.25 252.95 42.35Q251.90 40.45 251.90 36.50L251.90 26.35Q251.90 22.55 254.15 21.15Q256.40 19.75 260.55 19.75Q264.70 19.75 266.95 21.15Q269.20 22.55 269.20 26.35L269.20 33.35L259.70 33.35L259.70 39.90Q259.70 40.75 259.95 41.08Q260.20 41.40 260.55 41.40Q260.95 41.40 261.18 41.08Q261.40 40.75 261.40 39.90L261.40 35.40L269.20 35.40L269.20 36.45Q269.20 40.45 268.15 42.35Q267.10 44.25 265.15 44.83Q263.20 45.40 260.55 45.40M259.70 30L261.40 30L261.40 25.85Q261.40 25 261.18 24.67Q260.95 24.35 260.55 24.35Q260.20 24.35 259.95 24.67Q259.70 25 259.70 25.85L259.70 30ZM271.20 45L271.20 13.50L279.00 13.50L279.00 45L271.20 45ZM289.90 45.40Q287.25 45.40 285.30 44.83Q283.35 44.25 282.30 42.35Q281.25 40.45 281.25 36.50L281.25 26.85Q281.25 22.80 283.50 21.30Q285.75 19.80 289.90 19.80Q294.05 19.80 296.30 21.30Q298.55 22.80 298.55 26.85L298.55 36.45Q298.55 40.45 297.50 42.35Q296.45 44.25 294.50 44.83Q292.55 45.40 289.90 45.40M289.90 40.90Q290.30 40.90 290.53 40.58Q290.75 40.25 290.75 39.40L290.75 25.85Q290.75 25 290.53 24.67Q290.30 24.35 289.90 24.35Q289.55 24.35 289.30 24.67Q289.05 25 289.05 25.85L289.05 39.40Q289.05 40.25 289.30 40.58Q289.55 40.90 289.90 40.90ZM300.80 50.80L300.80 20.25L308.60 20.25L308.60 22Q309.05 21.30 309.88 20.57Q310.70 19.85 312.55 19.85Q313.80 19.85 315.08 20.22Q316.35 20.60 317.23 21.80Q318.10 23 318.10 25.45L318.10 37.30Q318.10 40.60 317.35 42.33Q316.60 44.05 315.35 44.67Q314.10 45.30 312.60 45.30Q310.90 45.30 310.00 44.65Q309.10 44 308.60 43.20L308.60 50.80L300.80 50.80M309.45 41Q309.65 41 309.80 40.92Q309.95 40.85 310.08 40.67Q310.20 40.50 310.25 40.23Q310.30 39.95 310.30 39.50L310.30 26.10Q310.30 25.65 310.25 25.38Q310.20 25.10 310.08 24.92Q309.95 24.75 309.80 24.67Q309.65 24.60 309.45 24.60Q309.30 24.60 309.15 24.63Q309.00 24.65 308.88 24.67Q308.75 24.70 308.68 24.72Q308.60 24.75 308.60 24.75L308.60 39.50Q308.60 40.05 308.70 40.40Q308.80 40.75 309.00 40.88Q309.20 41 309.45 41ZM328.75 45.40Q326.10 45.40 324.15 44.83Q322.20 44.25 321.15 42.35Q320.10 40.45 320.10 36.50L320.10 26.35Q320.10 22.55 322.35 21.15Q324.60 19.75 328.75 19.75Q332.90 19.75 335.15 21.15Q337.40 22.55 337.40 26.35L337.40 33.35L327.90 33.35L327.90 39.90Q327.90 40.75 328.15 41.08Q328.40 41.40 328.75 41.40Q329.15 41.40 329.38 41.08Q329.60 40.75 329.60 39.90L329.60 35.40L337.40 35.40L337.40 36.45Q337.40 40.45 336.35 42.35Q335.30 44.25 333.35 44.83Q331.40 45.40 328.75 45.40M327.90 30L329.60 30L329.60 25.85Q329.60 25 329.38 24.67Q329.15 24.35 328.75 24.35Q328.40 24.35 328.15 24.67Q327.90 25 327.90 25.85L327.90 30ZM339.40 45L339.40 20.25L346.05 20.25L346.65 23.45Q347.00 22.55 347.63 21.85Q348.25 21.15 349.05 20.75Q350.85 19.75 353.10 20.20L353.10 26.15Q353.10 26.15 352.28 26.05Q351.45 25.95 350.38 26.05Q349.30 26.15 348.60 26.70Q347.75 27.35 347.48 28.47Q347.20 29.60 347.20 31.05L347.20 45L339.40 45Z"/></g><g transform="translate(0, 130)"><path d="M0 45L0 15.45L14.30 15.45L14.30 21L8.30 21L8.30 26.75L13.80 26.75L13.80 33L8.30 33L8.30 39.60L14.30 39.60L14.30 45L0 45ZM14.90 45L19.35 32.30L15.80 20.25L23.20 20.25L24.60 26.55L26.65 20.25L33.80 20.25L29.60 32.30L33.40 45L26.00 45L24.55 38.70L22.55 45L14.90 45ZM34.80 50.80L34.80 20.25L42.60 20.25L42.60 22Q43.05 21.30 43.88 20.57Q44.70 19.85 46.55 19.85Q47.80 19.85 49.08 20.22Q50.35 20.60 51.23 21.80Q52.10 23 52.10 25.45L52.10 37.30Q52.10 40.60 51.35 42.33Q50.60 44.05 49.35 44.67Q48.10 45.30 46.60 45.30Q44.90 45.30 44.00 44.65Q43.10 44 42.60 43.20L42.60 50.80L34.80 50.80M43.45 41Q43.65 41 43.80 40.92Q43.95 40.85 44.08 40.67Q44.20 40.50 44.25 40.23Q44.30 39.95 44.30 39.50L44.30 26.10Q44.30 25.65 44.25 25.38Q44.20 25.10 44.08 24.92Q43.95 24.75 43.80 24.67Q43.65 24.60 43.45 24.60Q43.30 24.60 43.15 24.63Q43.00 24.65 42.88 24.67Q42.75 24.70 42.68 24.72Q42.60 24.75 42.60 24.75L42.60 39.50Q42.60 40.05 42.70 40.40Q42.80 40.75 43.00 40.88Q43.20 41 43.45 41ZM54.35 45L54.35 13.50L62.15 13.50L62.15 45L54.35 45ZM73.05 45.40Q70.40 45.40 68.45 44.83Q66.50 44.25 65.45 42.35Q64.40 40.45 64.40 36.50L64.40 26.85Q64.40 22.80 66.65 21.30Q68.90 19.80 73.05 19.80Q77.20 19.80 79.45 21.30Q81.70 22.80 81.70 26.85L81.70 36.45Q81.70 40.45 80.65 42.35Q79.60 44.25 77.65 44.83Q75.70 45.40 73.05 45.40M73.05 40.90Q73.45 40.90 73.68 40.58Q73.90 40.25 73.90 39.40L73.90 25.85Q73.90 25 73.68 24.67Q73.45 24.35 73.05 24.35Q72.70 24.35 72.45 24.67Q72.20 25 72.20 25.85L72.20 39.40Q72.20 40.25 72.45 40.58Q72.70 40.90 73.05 40.90ZM83.95 45L83.95 20.25L90.60 20.25L91.20 23.45Q91.55 22.55 92.17 21.85Q92.80 21.15 93.60 20.75Q95.40 19.75 97.65 20.20L97.65 26.15Q97.65 26.15 96.83 26.05Q96 25.95 94.93 26.05Q93.85 26.15 93.15 26.70Q92.30 27.35 92.03 28.47Q91.75 29.60 91.75 31.05L91.75 45L83.95 45ZM99.15 45L99.15 20.25L106.95 20.25L106.95 45L99.15 45M103 17.75Q101.60 17.75 100.58 16.77Q99.55 15.80 99.55 14.45Q99.55 13.05 100.58 12.07Q101.60 11.10 103 11.10Q104.45 11.10 105.50 12.07Q106.55 13.05 106.55 14.40Q106.55 15.80 105.50 16.77Q104.45 17.75 103 17.75ZM109.45 45L109.45 20.25L116.10 20.25L116.70 23.35Q117.15 21.80 118.40 20.77Q119.65 19.75 121.25 19.75Q123.45 19.75 124.65 20.50Q125.85 21.25 126.30 22.70Q126.75 24.15 126.75 26.30L126.75 45L118.95 45L118.95 26.60Q118.95 26.25 118.90 26Q118.85 25.75 118.75 25.57Q118.65 25.40 118.50 25.30Q118.35 25.20 118.10 25.20Q118 25.20 117.83 25.22Q117.65 25.25 117.50 25.27Q117.35 25.30 117.25 25.35L117.25 45L109.45 45ZM137.85 51.05Q137 51.05 135.80 50.98Q134.60 50.90 133.43 50.80Q132.25 50.70 131.43 50.60Q130.60 50.50 130.45 50.45L130.45 46.40Q131.20 46.55 132.63 46.65Q134.05 46.75 134.95 46.75Q135.85 46.75 136.47 46.60Q137.10 46.45 137.50 46.15Q137.90 45.85 138.07 45.35Q138.25 44.85 138.25 44.20L138.25 40.55Q138.05 40.90 137.72 41.60Q137.40 42.30 136.55 42.88Q135.70 43.45 133.85 43.45Q132.50 43.45 131.53 43.10Q130.55 42.75 129.95 41.85Q129.35 40.95 129.05 39.33Q128.75 37.70 128.75 35.20L128.75 26.10Q128.75 23.10 130.10 21.42Q131.45 19.75 134 19.75Q135.75 19.75 136.68 20.20Q137.60 20.65 138.07 21.38Q138.55 22.10 138.85 23L137.90 23.20L139.05 20.25L146.05 20.25L146.05 40.05Q146.05 41.70 145.88 43.60Q145.70 45.50 144.97 47.20Q144.25 48.90 142.57 49.98Q140.90 51.05 137.85 51.05M137.40 38.90Q137.65 38.90 137.85 38.77Q138.05 38.65 138.15 38.30Q138.25 37.95 138.25 37.40L138.25 25.05Q138.15 25 138.05 24.97Q137.95 24.95 137.80 24.92Q137.65 24.90 137.40 24.90Q137.05 24.90 136.80 25.22Q136.55 25.55 136.55 26.40L136.55 37.35Q136.55 37.80 136.60 38.10Q136.65 38.40 136.78 38.58Q136.90 38.75 137.05 38.83Q137.20 38.90 137.40 38.90ZM156.05 45L156.05 15.45L167.65 15.45Q169.85 15.45 171.23 16.10Q172.60 16.75 173.25 17.88Q173.90 19 173.90 20.50L173.90 38.75Q173.90 41.10 173 42.48Q172.10 43.85 170.45 44.42Q168.80 45 166.45 45L156.05 45M164.35 41L165.10 41Q165.50 41 165.73 40.67Q165.95 40.35 165.95 39.50L165.95 21.35Q165.95 20.50 165.73 20.17Q165.50 19.85 165.10 19.85L164.35 19.85L164.35 41ZM180.50 45.40Q179.10 45.40 178 45.02Q176.90 44.65 176.25 43.60Q175.60 42.55 175.60 40.55L175.60 36.50Q175.60 34.30 176.88 32.90Q178.15 31.50 181.35 30.50Q182.80 30 183.55 29.63Q184.30 29.25 184.58 28.63Q184.85 28 184.85 26.75L184.85 25.15Q184.85 24.75 184.78 24.47Q184.70 24.20 184.53 24.02Q184.35 23.85 184 23.85Q183.50 23.85 183.33 24.47Q183.15 25.10 183.15 26.85L183.15 28.95L176.10 28.95L176.10 26.10Q176.10 24.25 176.65 22.82Q177.20 21.40 178.90 20.57Q180.60 19.75 184 19.75Q187.40 19.75 189.30 20.25Q191.20 20.75 192 22.02Q192.80 23.30 192.80 25.70L192.80 45L185 45L185 42.55Q184.75 43.80 183.43 44.60Q182.10 45.40 180.50 45.40M184 40.35Q184.60 40.35 184.72 39.80Q184.85 39.25 184.85 38L184.85 32.95Q184.75 33.15 184.40 33.33Q184.05 33.50 183.80 33.80Q183.45 34.15 183.30 34.50Q183.15 34.85 183.15 35.50L183.15 38.55Q183.15 39 183.20 39.42Q183.25 39.85 183.43 40.10Q183.60 40.35 184 40.35ZM203.95 45.25Q202.75 45.25 201.43 45.08Q200.10 44.90 198.98 44.33Q197.85 43.75 197.15 42.55Q196.45 41.35 196.45 39.25L196.45 24.75L194 24.75L194 20.90L197.15 20.25L198.20 15.75L204.25 15.75L204.25 20.25L208.45 20.25L208.45 24.75L204.25 24.75L204.25 37.90Q204.25 38.65 204.58 39.38Q204.90 40.10 206.10 40.10Q206.70 40.10 207.58 40.02Q208.45 39.95 208.45 39.95L208.45 44.55Q208.45 44.55 207.05 44.90Q205.65 45.25 203.95 45.25ZM214.65 45.40Q213.25 45.40 212.15 45.02Q211.05 44.65 210.40 43.60Q209.75 42.55 209.75 40.55L209.75 36.50Q209.75 34.30 211.03 32.90Q212.30 31.50 215.50 30.50Q216.95 30 217.70 29.63Q218.45 29.25 218.73 28.63Q219 28 219 26.75L219 25.15Q219 24.75 218.93 24.47Q218.85 24.20 218.68 24.02Q218.50 23.85 218.15 23.85Q217.65 23.85 217.48 24.47Q217.30 25.10 217.30 26.85L217.30 28.95L210.25 28.95L210.25 26.10Q210.25 24.25 210.80 22.82Q211.35 21.40 213.05 20.57Q214.75 19.75 218.15 19.75Q221.55 19.75 223.45 20.25Q225.35 20.75 226.15 22.02Q226.95 23.30 226.95 25.70L226.95 45L219.15 45L219.15 42.55Q218.90 43.80 217.58 44.60Q216.25 45.40 214.65 45.40M218.15 40.35Q218.75 40.35 218.88 39.80Q219 39.25 219 38L219 32.95Q218.90 33.15 218.55 33.33Q218.20 33.50 217.95 33.80Q217.60 34.15 217.45 34.50Q217.30 34.85 217.30 35.50L217.30 38.55Q217.30 39 217.35 39.42Q217.40 39.85 217.58 40.10Q217.75 40.35 218.15 40.35ZM245.40 45.40Q242.45 45.40 240.38 44.67Q238.30 43.95 237.23 42.02Q236.15 40.10 236.15 36.55L236.15 34.70Q238.25 34.70 240.33 34.70Q242.40 34.70 244.50 34.70L244.50 37.25Q244.50 38.60 244.63 39.27Q244.75 39.95 244.98 40.17Q245.20 40.40 245.55 40.40Q246.10 40.40 246.33 39.88Q246.55 39.35 246.55 37.65Q246.55 36.05 246.05 35.30Q245.55 34.55 244.38 34.05Q243.20 33.55 241.20 32.70Q239.35 31.85 238.30 30.67Q237.25 29.50 236.83 27.82Q236.40 26.15 236.40 23.90Q236.40 20.75 237.23 18.88Q238.05 17 240.05 16.17Q242.05 15.35 245.55 15.35Q250.05 15.35 252.35 17.13Q254.65 18.90 254.65 22.55L254.65 26.35Q252.65 26.35 250.68 26.35Q248.70 26.35 246.70 26.35L246.70 25.05Q246.70 23 246.58 22.32Q246.45 21.65 245.65 21.65Q245.00 21.65 244.83 22.10Q244.65 22.55 244.65 23.65Q244.65 25.10 245.23 25.85Q245.80 26.60 246.75 26.97Q247.70 27.35 248.75 27.75Q250.95 28.55 252.33 29.42Q253.70 30.30 254.35 31.88Q255.00 33.45 255.00 36.45Q255.00 39.80 253.85 41.77Q252.70 43.75 250.55 44.58Q248.40 45.40 245.40 45.40ZM265.85 45.25Q264.65 45.25 263.33 45.08Q262 44.90 260.88 44.33Q259.75 43.75 259.05 42.55Q258.35 41.35 258.35 39.25L258.35 24.75L255.90 24.75L255.90 20.90L259.05 20.25L260.10 15.75L266.15 15.75L266.15 20.25L270.35 20.25L270.35 24.75L266.15 24.75L266.15 37.90Q266.15 38.65 266.48 39.38Q266.80 40.10 268 40.10Q268.60 40.10 269.48 40.02Q270.35 39.95 270.35 39.95L270.35 44.55Q270.35 44.55 268.95 44.90Q267.55 45.25 265.85 45.25ZM272.20 45L272.20 20.25L278.85 20.25L279.45 23.45Q279.80 22.55 280.43 21.85Q281.05 21.15 281.85 20.75Q283.65 19.75 285.90 20.20L285.90 26.15Q285.90 26.15 285.08 26.05Q284.25 25.95 283.18 26.05Q282.10 26.15 281.40 26.70Q280.55 27.35 280.28 28.47Q280.00 29.60 280.00 31.05L280.00 45L272.20 45ZM292.90 45.35Q290.70 45.35 289.50 44.60Q288.30 43.85 287.85 42.40Q287.40 40.95 287.40 38.80L287.40 20.25L295.20 20.25L295.20 38.50Q295.20 38.95 295.30 39.25Q295.40 39.55 295.60 39.73Q295.80 39.90 296.05 39.90Q296.20 39.90 296.35 39.88Q296.50 39.85 296.65 39.83Q296.80 39.80 296.90 39.75L296.90 20.25L304.70 20.25L304.70 45L298.05 45L297.45 41.75Q297.00 43.30 295.75 44.33Q294.50 45.35 292.90 45.35ZM315.60 45.40Q312.95 45.40 311.00 44.85Q309.05 44.30 308.00 42.42Q306.95 40.55 306.95 36.70L306.95 26.85Q306.95 22.85 309.20 21.35Q311.45 19.85 315.60 19.85Q319.75 19.85 322.00 21.25Q324.25 22.65 324.25 26.35L324.25 30.30L316.45 30.30L316.45 25.85Q316.45 25 316.23 24.67Q316.00 24.35 315.60 24.35Q315.25 24.35 315.00 24.67Q314.75 25 314.75 25.85L314.75 39.40Q314.75 40.25 315.00 40.58Q315.25 40.90 315.60 40.90Q316.00 40.90 316.23 40.58Q316.45 40.25 316.45 39.40L316.45 34.35L324.25 34.35L324.25 36.65Q324.25 40.55 323.20 42.42Q322.15 44.30 320.20 44.85Q318.25 45.40 315.60 45.40ZM335.15 45.25Q333.95 45.25 332.63 45.08Q331.30 44.90 330.18 44.33Q329.05 43.75 328.35 42.55Q327.65 41.35 327.65 39.25L327.65 24.75L325.20 24.75L325.20 20.90L328.35 20.25L329.40 15.75L335.45 15.75L335.45 20.25L339.65 20.25L339.65 24.75L335.45 24.75L335.45 37.90Q335.45 38.65 335.78 39.38Q336.10 40.10 337.30 40.10Q337.90 40.10 338.78 40.02Q339.65 39.95 339.65 39.95L339.65 44.55Q339.65 44.55 338.25 44.90Q336.85 45.25 335.15 45.25ZM347.00 45.35Q344.80 45.35 343.60 44.60Q342.40 43.85 341.95 42.40Q341.50 40.95 341.50 38.80L341.50 20.25L349.30 20.25L349.30 38.50Q349.30 38.95 349.40 39.25Q349.50 39.55 349.70 39.73Q349.90 39.90 350.15 39.90Q350.30 39.90 350.45 39.88Q350.60 39.85 350.75 39.83Q350.90 39.80 351.00 39.75L351.00 20.25L358.80 20.25L358.80 45L352.15 45L351.55 41.75Q351.10 43.30 349.85 44.33Q348.60 45.35 347.00 45.35ZM361.30 45L361.30 20.25L367.95 20.25L368.55 23.45Q368.90 22.55 369.53 21.85Q370.15 21.15 370.95 20.75Q372.75 19.75 375.00 20.20L375.00 26.15Q375.00 26.15 374.18 26.05Q373.35 25.95 372.28 26.05Q371.20 26.15 370.50 26.70Q369.65 27.35 369.38 28.47Q369.10 29.60 369.10 31.05L369.10 45L361.30 45ZM384.90 45.40Q382.25 45.40 380.30 44.83Q378.35 44.25 377.30 42.35Q376.25 40.45 376.25 36.50L376.25 26.35Q376.25 22.55 378.50 21.15Q380.75 19.75 384.90 19.75Q389.05 19.75 391.30 21.15Q393.55 22.55 393.55 26.35L393.55 33.35L384.05 33.35L384.05 39.90Q384.05 40.75 384.30 41.08Q384.55 41.40 384.90 41.40Q385.30 41.40 385.53 41.08Q385.75 40.75 385.75 39.90L385.75 35.40L393.55 35.40L393.55 36.45Q393.55 40.45 392.50 42.35Q391.45 44.25 389.50 44.83Q387.55 45.40 384.90 45.40M384.05 30L385.75 30L385.75 25.85Q385.75 25 385.53 24.67Q385.30 24.35 384.90 24.35Q384.55 24.35 384.30 24.67Q384.05 25 384.05 25.85L384.05 30ZM403.80 45.40Q400.30 45.40 398.40 44.52Q396.50 43.65 395.75 41.88Q395.00 40.10 395.00 37.50L395.00 35.80L402.85 35.80L402.85 39.25Q402.85 40.25 403.00 40.77Q403.15 41.30 403.70 41.30Q404.20 41.30 404.38 40.90Q404.55 40.50 404.55 39.95L404.55 37.65Q404.55 36.40 404.03 35.83Q403.50 35.25 402.55 34.92Q401.60 34.60 400.40 34.10Q399.30 33.65 398.20 33Q397.10 32.35 396.38 31.20Q395.65 30.05 395.65 28.25L395.65 26.85Q395.65 23.30 397.53 21.57Q399.40 19.85 404.45 19.85Q407.85 19.85 409.68 20.67Q411.50 21.50 412.20 23.17Q412.90 24.85 412.90 27.35L412.90 28.95L405.35 28.95L405.35 25.90Q405.35 24.90 405.20 24.42Q405.05 23.95 404.50 23.95Q404.00 23.95 403.83 24.32Q403.65 24.70 403.65 25.25L403.65 27.50Q403.65 28.60 404.38 29.17Q405.10 29.75 406.15 30.02Q407.20 30.30 408.10 30.65Q409.30 31.05 410.40 31.70Q411.50 32.35 412.20 33.42Q412.90 34.50 412.90 36.20L412.90 38Q412.90 40.45 412.08 42.10Q411.25 43.75 409.28 44.58Q407.30 45.40 403.80 45.40ZM430.30 45.10Q427.70 45.10 425.88 44.10Q424.05 43.10 423.08 41.27Q422.10 39.45 422.10 36.85Q422.10 34.90 423.00 33.15Q423.90 31.40 425.80 31Q425.25 29.85 424.93 28.55Q424.60 27.25 424.70 25.65Q424.90 22.65 426.50 21.10Q428.10 19.55 431.30 19.55Q432.90 19.55 434.60 19.77Q436.30 20 437.63 20.27Q438.95 20.55 439.45 20.75L439.45 26.30Q439.35 26.25 438.40 26.05Q437.45 25.85 436.13 25.67Q434.80 25.50 433.50 25.50Q432.75 25.50 432.28 25.88Q431.80 26.25 431.63 26.85Q431.45 27.45 431.60 28.18Q431.75 28.90 432.20 29.60Q432.40 29.90 432.60 30.23Q432.80 30.55 433.00 30.85Q433.20 31.15 433.43 31.45Q433.65 31.75 433.90 32.02Q434.15 32.30 434.40 32.60L434.45 28.80L442.55 28.80L442.55 33.55L439.35 33.55Q439.35 34 439.33 34.50Q439.30 35 439.23 35.50Q439.15 36 439.05 36.55Q439.75 36.95 440.80 37.48Q441.85 38 442.55 38.25L442.55 45.10Q441.30 45.10 439.55 44.38Q437.80 43.65 436.35 42.70Q435.65 43.50 434.75 44.02Q433.85 44.55 432.75 44.83Q431.65 45.10 430.30 45.10M430.65 39.80Q431.15 39.80 431.55 39.70Q431.95 39.60 432.30 39.40Q431.20 38.40 430.18 37.25Q429.15 36.10 428.30 34.90Q428.20 35.15 428.15 35.40Q428.10 35.65 428.10 36Q427.95 37.70 428.70 38.75Q429.45 39.80 430.65 39.80ZM451.20 45L455.45 15.45L467.20 15.45L471.35 45L462.40 45L462.00 40.70L460.15 40.70L459.85 45L451.20 45M460.20 36.85L462.00 36.85L461.10 21.70L460.20 36.85ZM472.75 45L472.75 13.50L480.55 13.50L480.55 45L472.75 45ZM491.90 51.05Q491.05 51.05 489.85 50.98Q488.65 50.90 487.48 50.80Q486.30 50.70 485.48 50.60Q484.65 50.50 484.50 50.45L484.50 46.40Q485.25 46.55 486.68 46.65Q488.10 46.75 489.00 46.75Q489.90 46.75 490.53 46.60Q491.15 46.45 491.55 46.15Q491.95 45.85 492.13 45.35Q492.30 44.85 492.30 44.20L492.30 40.55Q492.10 40.90 491.78 41.60Q491.45 42.30 490.60 42.88Q489.75 43.45 487.90 43.45Q486.55 43.45 485.58 43.10Q484.60 42.75 484.00 41.85Q483.40 40.95 483.10 39.33Q482.80 37.70 482.80 35.20L482.80 26.10Q482.80 23.10 484.15 21.42Q485.50 19.75 488.05 19.75Q489.80 19.75 490.73 20.20Q491.65 20.65 492.13 21.38Q492.60 22.10 492.90 23L491.95 23.20L493.10 20.25L500.10 20.25L500.10 40.05Q500.10 41.70 499.93 43.60Q499.75 45.50 499.03 47.20Q498.30 48.90 496.63 49.98Q494.95 51.05 491.90 51.05M491.45 38.90Q491.70 38.90 491.90 38.77Q492.10 38.65 492.20 38.30Q492.30 37.95 492.30 37.40L492.30 25.05Q492.20 25 492.10 24.97Q492.00 24.95 491.85 24.92Q491.70 24.90 491.45 24.90Q491.10 24.90 490.85 25.22Q490.60 25.55 490.60 26.40L490.60 37.35Q490.60 37.80 490.65 38.10Q490.70 38.40 490.83 38.58Q490.95 38.75 491.10 38.83Q491.25 38.90 491.45 38.90ZM511.00 45.40Q508.35 45.40 506.40 44.83Q504.45 44.25 503.40 42.35Q502.35 40.45 502.35 36.50L502.35 26.85Q502.35 22.80 504.60 21.30Q506.85 19.80 511.00 19.80Q515.15 19.80 517.40 21.30Q519.65 22.80 519.65 26.85L519.65 36.45Q519.65 40.45 518.60 42.35Q517.55 44.25 515.60 44.83Q513.65 45.40 511.00 45.40M511.00 40.90Q511.40 40.90 511.63 40.58Q511.85 40.25 511.85 39.40L511.85 25.85Q511.85 25 511.63 24.67Q511.40 24.35 511.00 24.35Q510.65 24.35 510.40 24.67Q510.15 25 510.15 25.85L510.15 39.40Q510.15 40.25 510.40 40.58Q510.65 40.90 511.00 40.90ZM521.90 45L521.90 20.25L528.55 20.25L529.15 23.45Q529.50 22.55 530.13 21.85Q530.75 21.15 531.55 20.75Q533.35 19.75 535.60 20.20L535.60 26.15Q535.60 26.15 534.78 26.05Q533.95 25.95 532.88 26.05Q531.80 26.15 531.10 26.70Q530.25 27.35 529.98 28.47Q529.70 29.60 529.70 31.05L529.70 45L521.90 45ZM537.10 45L537.10 20.25L544.90 20.25L544.90 45L537.10 45M540.95 17.75Q539.55 17.75 538.53 16.77Q537.50 15.80 537.50 14.45Q537.50 13.05 538.53 12.07Q539.55 11.10 540.95 11.10Q542.40 11.10 543.45 12.07Q544.50 13.05 544.50 14.40Q544.50 15.80 543.45 16.77Q542.40 17.75 540.95 17.75ZM556.30 45.25Q555.10 45.25 553.78 45.08Q552.45 44.90 551.33 44.33Q550.20 43.75 549.50 42.55Q548.80 41.35 548.80 39.25L548.80 24.75L546.35 24.75L546.35 20.90L549.50 20.25L550.55 15.75L556.60 15.75L556.60 20.25L560.80 20.25L560.80 24.75L556.60 24.75L556.60 37.90Q556.60 38.65 556.93 39.38Q557.25 40.10 558.45 40.10Q559.05 40.10 559.93 40.02Q560.80 39.95 560.80 39.95L560.80 44.55Q560.80 44.55 559.40 44.90Q558.00 45.25 556.30 45.25ZM562.65 45L562.65 13.50L569.90 13.50L569.90 23.35Q570.50 21.60 571.68 20.67Q572.85 19.75 574.45 19.75Q576.65 19.75 577.85 20.50Q579.05 21.25 579.50 22.70Q579.95 24.15 579.95 26.30L579.95 45L572.15 45L572.15 26.60Q572.15 26.25 572.10 26Q572.05 25.75 571.95 25.57Q571.85 25.40 571.68 25.30Q571.50 25.20 571.20 25.20Q571.00 25.20 570.85 25.22Q570.70 25.25 570.63 25.27Q570.55 25.30 570.45 25.35L570.45 45L562.65 45ZM582.20 45L582.20 20.25L588.85 20.25L589.45 23.35Q589.90 21.80 591.15 20.77Q592.40 19.75 594 19.75Q596.80 19.75 597.98 20.95Q599.15 22.15 599.45 24.45L598.75 24.40Q598.90 22.50 600.28 21.13Q601.65 19.75 603.50 19.75Q606.80 19.75 607.90 21.40Q609 23.05 609 26.30L609 45L601.20 45L601.20 26.60Q601.20 25.90 600.98 25.55Q600.75 25.20 600.35 25.20Q600.15 25.20 599.90 25.22Q599.65 25.25 599.50 25.35L599.50 45L591.70 45L591.70 26.60Q591.70 25.90 591.48 25.55Q591.25 25.20 590.85 25.20Q590.65 25.20 590.40 25.22Q590.15 25.25 590 25.35L590 45L582.20 45ZM619.50 45.40Q616 45.40 614.10 44.52Q612.20 43.65 611.45 41.88Q610.70 40.10 610.70 37.50L610.70 35.80L618.55 35.80L618.55 39.25Q618.55 40.25 618.70 40.77Q618.85 41.30 619.40 41.30Q619.90 41.30 620.08 40.90Q620.25 40.50 620.25 39.95L620.25 37.65Q620.25 36.40 619.73 35.83Q619.20 35.25 618.25 34.92Q617.30 34.60 616.10 34.10Q615 33.65 613.90 33Q612.80 32.35 612.08 31.20Q611.35 30.05 611.35 28.25L611.35 26.85Q611.35 23.30 613.23 21.57Q615.10 19.85 620.15 19.85Q623.55 19.85 625.38 20.67Q627.20 21.50 627.90 23.17Q628.60 24.85 628.60 27.35L628.60 28.95L621.05 28.95L621.05 25.90Q621.05 24.90 620.90 24.42Q620.75 23.95 620.20 23.95Q619.70 23.95 619.52 24.32Q619.35 24.70 619.35 25.25L619.35 27.50Q619.35 28.60 620.08 29.17Q620.80 29.75 621.85 30.02Q622.90 30.30 623.80 30.65Q625 31.05 626.10 31.70Q627.20 32.35 627.90 33.42Q628.60 34.50 628.60 36.20L628.60 38Q628.60 40.45 627.77 42.10Q626.95 43.75 624.98 44.58Q623 45.40 619.50 45.40Z"/></g><g transform="translate(0, 195)"><path d="M0 45L0 15.45L11.60 15.45Q14.70 15.45 16.13 16.88Q17.55 18.30 17.55 20.50L17.55 23.70Q17.55 24.95 17.20 26.02Q16.85 27.10 16.05 27.85Q15.55 28.35 14.80 28.68Q14.05 29 13.20 29.10L13.20 29.20Q13.90 29.20 14.58 29.40Q15.25 29.60 16.05 30.15Q16.95 30.80 17.50 31.98Q18.05 33.15 18.05 34.90L18.05 38.75Q18.05 41.10 17.20 42.48Q16.35 43.85 14.75 44.42Q13.15 45 10.90 45L0 45M8 40.95L9 40.95Q9.35 40.95 9.55 40.73Q9.75 40.50 9.88 39.92Q10 39.35 10 38.30L10 35.15Q10 33.50 9.75 33.02Q9.50 32.55 8.95 32.55L8 32.55L8 40.95M8 27.60L8.80 27.60Q9.25 27.60 9.60 27.02Q9.95 26.45 9.95 24.60L9.95 21.95Q9.95 20.65 9.70 20.15Q9.45 19.65 8.90 19.65L8 19.65L8 27.60ZM25.55 45.35Q23.35 45.35 22.15 44.60Q20.95 43.85 20.50 42.40Q20.05 40.95 20.05 38.80L20.05 20.25L27.85 20.25L27.85 38.50Q27.85 38.95 27.95 39.25Q28.05 39.55 28.25 39.73Q28.45 39.90 28.70 39.90Q28.85 39.90 29 39.88Q29.15 39.85 29.30 39.83Q29.45 39.80 29.55 39.75L29.55 20.25L37.35 20.25L37.35 45L30.70 45L30.10 41.75Q29.65 43.30 28.40 44.33Q27.15 45.35 25.55 45.35ZM39.85 45L39.85 20.25L47.65 20.25L47.65 45L39.85 45M43.70 17.75Q42.30 17.75 41.27 16.77Q40.25 15.80 40.25 14.45Q40.25 13.05 41.27 12.07Q42.30 11.10 43.70 11.10Q45.15 11.10 46.20 12.07Q47.25 13.05 47.25 14.40Q47.25 15.80 46.20 16.77Q45.15 17.75 43.70 17.75ZM50.15 45L50.15 13.50L57.95 13.50L57.95 45L50.15 45ZM67 45.35Q65.60 45.35 64.38 45.13Q63.15 44.90 62.20 44.15Q61.25 43.40 60.73 41.77Q60.20 40.15 60.20 37.30L60.20 25.45Q60.20 23.60 60.78 22.52Q61.35 21.45 62.20 20.90Q63.05 20.35 63.93 20.17Q64.80 20 65.45 20Q67.45 20 68.35 20.65Q69.25 21.30 69.70 22L69.70 13.50L77.50 13.50L77.50 45L72.25 45L71.45 42.65Q71.25 43 70.75 43.65Q70.25 44.30 69.35 44.83Q68.45 45.35 67 45.35M68.85 41Q69.05 41 69.20 40.92Q69.35 40.85 69.48 40.67Q69.60 40.50 69.65 40.23Q69.70 39.95 69.70 39.50L69.70 24.75Q69.70 24.75 69.58 24.70Q69.45 24.65 69.28 24.63Q69.10 24.60 68.85 24.60Q68.65 24.60 68.50 24.67Q68.35 24.75 68.23 24.92Q68.10 25.10 68.05 25.38Q68 25.65 68 26.10L68 39.50Q68 40.05 68.10 40.40Q68.20 40.75 68.40 40.88Q68.60 41 68.85 41ZM80 45L80 20.25L87.80 20.25L87.80 45L80 45M83.85 17.75Q82.45 17.75 81.42 16.77Q80.40 15.80 80.40 14.45Q80.40 13.05 81.42 12.07Q82.45 11.10 83.85 11.10Q85.30 11.10 86.35 12.07Q87.40 13.05 87.40 14.40Q87.40 15.80 86.35 16.77Q85.30 17.75 83.85 17.75ZM90.30 45L90.30 20.25L96.95 20.25L97.55 23.35Q98 21.80 99.25 20.77Q100.50 19.75 102.10 19.75Q104.30 19.75 105.50 20.50Q106.70 21.25 107.15 22.70Q107.60 24.15 107.60 26.30L107.60 45L99.80 45L99.80 26.60Q99.80 26.25 99.75 26Q99.70 25.75 99.60 25.57Q99.50 25.40 99.35 25.30Q99.20 25.20 98.95 25.20Q98.85 25.20 98.67 25.22Q98.50 25.25 98.35 25.27Q98.20 25.30 98.10 25.35L98.10 45L90.30 45ZM118.70 51.05Q117.85 51.05 116.65 50.98Q115.45 50.90 114.27 50.80Q113.10 50.70 112.27 50.60Q111.45 50.50 111.30 50.45L111.30 46.40Q112.05 46.55 113.47 46.65Q114.90 46.75 115.80 46.75Q116.70 46.75 117.32 46.60Q117.95 46.45 118.35 46.15Q118.75 45.85 118.92 45.35Q119.10 44.85 119.10 44.20L119.10 40.55Q118.90 40.90 118.57 41.60Q118.25 42.30 117.40 42.88Q116.55 43.45 114.70 43.45Q113.35 43.45 112.38 43.10Q111.40 42.75 110.80 41.85Q110.20 40.95 109.90 39.33Q109.60 37.70 109.60 35.20L109.60 26.10Q109.60 23.10 110.95 21.42Q112.30 19.75 114.85 19.75Q116.60 19.75 117.52 20.20Q118.45 20.65 118.92 21.38Q119.40 22.10 119.70 23L118.75 23.20L119.90 20.25L126.90 20.25L126.90 40.05Q126.90 41.70 126.72 43.60Q126.55 45.50 125.82 47.20Q125.10 48.90 123.42 49.98Q121.75 51.05 118.70 51.05M118.25 38.90Q118.50 38.90 118.70 38.77Q118.90 38.65 119 38.30Q119.10 37.95 119.10 37.40L119.10 25.05Q119 25 118.90 24.97Q118.80 24.95 118.65 24.92Q118.50 24.90 118.25 24.90Q117.90 24.90 117.65 25.22Q117.40 25.55 117.40 26.40L117.40 37.35Q117.40 37.80 117.45 38.10Q117.50 38.40 117.63 38.58Q117.75 38.75 117.90 38.83Q118.05 38.90 118.25 38.90ZM136.90 45L136.90 20.25L144.70 20.25L144.70 45L136.90 45M140.75 17.75Q139.35 17.75 138.33 16.77Q137.30 15.80 137.30 14.45Q137.30 13.05 138.33 12.07Q139.35 11.10 140.75 11.10Q142.20 11.10 143.25 12.07Q144.30 13.05 144.30 14.40Q144.30 15.80 143.25 16.77Q142.20 17.75 140.75 17.75ZM147.20 45L147.20 20.25L153.85 20.25L154.45 23.35Q154.90 21.80 156.15 20.77Q157.40 19.75 159.00 19.75Q161.80 19.75 162.98 20.95Q164.15 22.15 164.45 24.45L163.75 24.40Q163.90 22.50 165.28 21.13Q166.65 19.75 168.50 19.75Q171.80 19.75 172.90 21.40Q174.00 23.05 174.00 26.30L174.00 45L166.20 45L166.20 26.60Q166.20 25.90 165.98 25.55Q165.75 25.20 165.35 25.20Q165.15 25.20 164.90 25.22Q164.65 25.25 164.50 25.35L164.50 45L156.70 45L156.70 26.60Q156.70 25.90 156.48 25.55Q156.25 25.20 155.85 25.20Q155.65 25.20 155.40 25.22Q155.15 25.25 155.00 25.35L155.00 45L147.20 45ZM176.25 50.80L176.25 20.25L184.05 20.25L184.05 22Q184.50 21.30 185.33 20.57Q186.15 19.85 188.00 19.85Q189.25 19.85 190.53 20.22Q191.80 20.60 192.68 21.80Q193.55 23 193.55 25.45L193.55 37.30Q193.55 40.60 192.80 42.33Q192.05 44.05 190.80 44.67Q189.55 45.30 188.05 45.30Q186.35 45.30 185.45 44.65Q184.55 44 184.05 43.20L184.05 50.80L176.25 50.80M184.90 41Q185.10 41 185.25 40.92Q185.40 40.85 185.53 40.67Q185.65 40.50 185.70 40.23Q185.75 39.95 185.75 39.50L185.75 26.10Q185.75 25.65 185.70 25.38Q185.65 25.10 185.53 24.92Q185.40 24.75 185.25 24.67Q185.10 24.60 184.90 24.60Q184.75 24.60 184.60 24.63Q184.45 24.65 184.33 24.67Q184.20 24.70 184.13 24.72Q184.05 24.75 184.05 24.75L184.05 39.50Q184.05 40.05 184.15 40.40Q184.25 40.75 184.45 40.88Q184.65 41 184.90 41ZM200.15 45.40Q198.75 45.40 197.65 45.02Q196.55 44.65 195.90 43.60Q195.25 42.55 195.25 40.55L195.25 36.50Q195.25 34.30 196.53 32.90Q197.80 31.50 201.00 30.50Q202.45 30 203.20 29.63Q203.95 29.25 204.23 28.63Q204.50 28 204.50 26.75L204.50 25.15Q204.50 24.75 204.43 24.47Q204.35 24.20 204.18 24.02Q204.00 23.85 203.65 23.85Q203.15 23.85 202.98 24.47Q202.80 25.10 202.80 26.85L202.80 28.95L195.75 28.95L195.75 26.10Q195.75 24.25 196.30 22.82Q196.85 21.40 198.55 20.57Q200.25 19.75 203.65 19.75Q207.05 19.75 208.95 20.25Q210.85 20.75 211.65 22.02Q212.45 23.30 212.45 25.70L212.45 45L204.65 45L204.65 42.55Q204.40 43.80 203.08 44.60Q201.75 45.40 200.15 45.40M203.65 40.35Q204.25 40.35 204.38 39.80Q204.50 39.25 204.50 38L204.50 32.95Q204.40 33.15 204.05 33.33Q203.70 33.50 203.45 33.80Q203.10 34.15 202.95 34.50Q202.80 34.85 202.80 35.50L202.80 38.55Q202.80 39 202.85 39.42Q202.90 39.85 203.08 40.10Q203.25 40.35 203.65 40.35ZM223.10 45.40Q220.45 45.40 218.50 44.85Q216.55 44.30 215.50 42.42Q214.45 40.55 214.45 36.70L214.45 26.85Q214.45 22.85 216.70 21.35Q218.95 19.85 223.10 19.85Q227.25 19.85 229.50 21.25Q231.75 22.65 231.75 26.35L231.75 30.30L223.95 30.30L223.95 25.85Q223.95 25 223.73 24.67Q223.50 24.35 223.10 24.35Q222.75 24.35 222.50 24.67Q222.25 25 222.25 25.85L222.25 39.40Q222.25 40.25 222.50 40.58Q222.75 40.90 223.10 40.90Q223.50 40.90 223.73 40.58Q223.95 40.25 223.95 39.40L223.95 34.35L231.75 34.35L231.75 36.65Q231.75 40.55 230.70 42.42Q229.65 44.30 227.70 44.85Q225.75 45.40 223.10 45.40ZM242.65 45.25Q241.45 45.25 240.13 45.08Q238.80 44.90 237.68 44.33Q236.55 43.75 235.85 42.55Q235.15 41.35 235.15 39.25L235.15 24.75L232.70 24.75L232.70 20.90L235.85 20.25L236.90 15.75L242.95 15.75L242.95 20.25L247.15 20.25L247.15 24.75L242.95 24.75L242.95 37.90Q242.95 38.65 243.28 39.38Q243.60 40.10 244.80 40.10Q245.40 40.10 246.28 40.02Q247.15 39.95 247.15 39.95L247.15 44.55Q247.15 44.55 245.75 44.90Q244.35 45.25 242.65 45.25ZM249.60 45L249.60 25.55L248.00 25.55L248.00 21.20L249.60 21.20L249.60 19.40Q249.60 17.30 250.18 16.10Q250.75 14.90 251.68 14.35Q252.60 13.80 253.68 13.65Q254.75 13.50 255.80 13.50Q256.95 13.50 258.15 13.57Q259.35 13.65 260.28 13.72Q261.20 13.80 261.40 13.80L261.40 17.30Q261.00 17.25 260.40 17.20Q259.80 17.15 259.05 17.15Q258.10 17.15 257.75 17.63Q257.40 18.10 257.40 19.10L257.40 21.20L261.40 21.20L261.40 25.55L257.40 25.55L257.40 45L249.60 45ZM268.15 45.35Q265.95 45.35 264.75 44.60Q263.55 43.85 263.10 42.40Q262.65 40.95 262.65 38.80L262.65 20.25L270.45 20.25L270.45 38.50Q270.45 38.95 270.55 39.25Q270.65 39.55 270.85 39.73Q271.05 39.90 271.30 39.90Q271.45 39.90 271.60 39.88Q271.75 39.85 271.90 39.83Q272.05 39.80 272.15 39.75L272.15 20.25L279.95 20.25L279.95 45L273.30 45L272.70 41.75Q272.25 43.30 271.00 44.33Q269.75 45.35 268.15 45.35ZM282.45 45L282.45 13.50L290.25 13.50L290.25 45L282.45 45ZM303.90 45L299.00 20.25L306.40 20.25L308.50 35.80L310.65 20.25L318.20 20.25L320.75 35.80L322.45 20.25L329.85 20.25L324.95 45L315.95 45L314.40 35.10L312.90 45L303.90 45ZM339.50 45.40Q336.85 45.40 334.90 44.83Q332.95 44.25 331.90 42.35Q330.85 40.45 330.85 36.50L330.85 26.35Q330.85 22.55 333.10 21.15Q335.35 19.75 339.50 19.75Q343.65 19.75 345.90 21.15Q348.15 22.55 348.15 26.35L348.15 33.35L338.65 33.35L338.65 39.90Q338.65 40.75 338.90 41.08Q339.15 41.40 339.50 41.40Q339.90 41.40 340.13 41.08Q340.35 40.75 340.35 39.90L340.35 35.40L348.15 35.40L348.15 36.45Q348.15 40.45 347.10 42.35Q346.05 44.25 344.10 44.83Q342.15 45.40 339.50 45.40M338.65 30L340.35 30L340.35 25.85Q340.35 25 340.13 24.67Q339.90 24.35 339.50 24.35Q339.15 24.35 338.90 24.67Q338.65 25 338.65 25.85L338.65 30ZM360.65 45.35Q358.50 45.35 357.30 44.42Q356.10 43.50 355.80 42.85L355.65 45L350.15 45L350.15 13.50L357.95 13.50L357.95 22.10Q358.35 21.35 359.28 20.55Q360.20 19.75 362.05 19.75Q363.30 19.75 364.53 20.15Q365.75 20.55 366.60 21.80Q367.45 23.05 367.45 25.55L367.45 37.30Q367.45 40.15 366.93 41.77Q366.40 43.40 365.48 44.15Q364.55 44.90 363.33 45.13Q362.10 45.35 360.65 45.35M358.80 40.10Q359.20 40.10 359.38 39.90Q359.55 39.70 359.60 39.30Q359.65 38.90 359.65 38.35L359.65 26.20Q359.65 25.35 359.43 25.02Q359.20 24.70 358.80 24.70Q358.45 24.70 358.20 25.02Q357.95 25.35 357.95 26.20L357.95 38.35Q357.95 39.20 358.13 39.65Q358.30 40.10 358.80 40.10ZM385.60 45.40Q382.95 45.40 381.00 44.83Q379.05 44.25 378.00 42.35Q376.95 40.45 376.95 36.50L376.95 26.35Q376.95 22.55 379.20 21.15Q381.45 19.75 385.60 19.75Q389.75 19.75 392.00 21.15Q394.25 22.55 394.25 26.35L394.25 33.35L384.75 33.35L384.75 39.90Q384.75 40.75 385.00 41.08Q385.25 41.40 385.60 41.40Q386.00 41.40 386.23 41.08Q386.45 40.75 386.45 39.90L386.45 35.40L394.25 35.40L394.25 36.45Q394.25 40.45 393.20 42.35Q392.15 44.25 390.20 44.83Q388.25 45.40 385.60 45.40M384.75 30L386.45 30L386.45 25.85Q386.45 25 386.23 24.67Q386.00 24.35 385.60 24.35Q385.25 24.35 385.00 24.67Q384.75 25 384.75 25.85L384.75 30ZM394.75 45L399.20 32.30L395.65 20.25L403.05 20.25L404.45 26.55L406.50 20.25L413.65 20.25L409.45 32.30L413.25 45L405.85 45L404.40 38.70L402.40 45L394.75 45ZM414.65 50.80L414.65 20.25L422.45 20.25L422.45 22Q422.90 21.30 423.73 20.57Q424.55 19.85 426.40 19.85Q427.65 19.85 428.93 20.22Q430.20 20.60 431.08 21.80Q431.95 23 431.95 25.45L431.95 37.30Q431.95 40.60 431.20 42.33Q430.45 44.05 429.20 44.67Q427.95 45.30 426.45 45.30Q424.75 45.30 423.85 44.65Q422.95 44 422.45 43.20L422.45 50.80L414.65 50.80M423.30 41Q423.50 41 423.65 40.92Q423.80 40.85 423.93 40.67Q424.05 40.50 424.10 40.23Q424.15 39.95 424.15 39.50L424.15 26.10Q424.15 25.65 424.10 25.38Q424.05 25.10 423.93 24.92Q423.80 24.75 423.65 24.67Q423.50 24.60 423.30 24.60Q423.15 24.60 423.00 24.63Q422.85 24.65 422.73 24.67Q422.60 24.70 422.53 24.72Q422.45 24.75 422.45 24.75L422.45 39.50Q422.45 40.05 422.55 40.40Q422.65 40.75 422.85 40.88Q423.05 41 423.30 41ZM442.60 45.40Q439.95 45.40 438.00 44.83Q436.05 44.25 435.00 42.35Q433.95 40.45 433.95 36.50L433.95 26.35Q433.95 22.55 436.20 21.15Q438.45 19.75 442.60 19.75Q446.75 19.75 449.00 21.15Q451.25 22.55 451.25 26.35L451.25 33.35L441.75 33.35L441.75 39.90Q441.75 40.75 442.00 41.08Q442.25 41.40 442.60 41.40Q443.00 41.40 443.23 41.08Q443.45 40.75 443.45 39.90L443.45 35.40L451.25 35.40L451.25 36.45Q451.25 40.45 450.20 42.35Q449.15 44.25 447.20 44.83Q445.25 45.40 442.60 45.40M441.75 30L443.45 30L443.45 25.85Q443.45 25 443.23 24.67Q443.00 24.35 442.60 24.35Q442.25 24.35 442.00 24.67Q441.75 25 441.75 25.85L441.75 30ZM453.25 45L453.25 20.25L459.90 20.25L460.50 23.45Q460.85 22.55 461.48 21.85Q462.10 21.15 462.90 20.75Q464.70 19.75 466.95 20.20L466.95 26.15Q466.95 26.15 466.13 26.05Q465.30 25.95 464.23 26.05Q463.15 26.15 462.45 26.70Q461.60 27.35 461.33 28.47Q461.05 29.60 461.05 31.05L461.05 45L453.25 45ZM468.45 45L468.45 20.25L476.25 20.25L476.25 45L468.45 45M472.30 17.75Q470.90 17.75 469.88 16.77Q468.85 15.80 468.85 14.45Q468.85 13.05 469.88 12.07Q470.90 11.10 472.30 11.10Q473.75 11.10 474.80 12.07Q475.85 13.05 475.85 14.40Q475.85 15.80 474.80 16.77Q473.75 17.75 472.30 17.75ZM487.15 45.40Q484.50 45.40 482.55 44.83Q480.60 44.25 479.55 42.35Q478.50 40.45 478.50 36.50L478.50 26.35Q478.50 22.55 480.75 21.15Q483.00 19.75 487.15 19.75Q491.30 19.75 493.55 21.15Q495.80 22.55 495.80 26.35L495.80 33.35L486.30 33.35L486.30 39.90Q486.30 40.75 486.55 41.08Q486.80 41.40 487.15 41.40Q487.55 41.40 487.78 41.08Q488.00 40.75 488.00 39.90L488.00 35.40L495.80 35.40L495.80 36.45Q495.80 40.45 494.75 42.35Q493.70 44.25 491.75 44.83Q489.80 45.40 487.15 45.40M486.30 30L488.00 30L488.00 25.85Q488.00 25 487.78 24.67Q487.55 24.35 487.15 24.35Q486.80 24.35 486.55 24.67Q486.30 25 486.30 25.85L486.30 30ZM497.80 45L497.80 20.25L504.45 20.25L505.05 23.35Q505.50 21.80 506.75 20.77Q508.00 19.75 509.60 19.75Q511.80 19.75 513.00 20.50Q514.20 21.25 514.65 22.70Q515.10 24.15 515.10 26.30L515.10 45L507.30 45L507.30 26.60Q507.30 26.25 507.25 26Q507.20 25.75 507.10 25.57Q507.00 25.40 506.85 25.30Q506.70 25.20 506.45 25.20Q506.35 25.20 506.18 25.22Q506.00 25.25 505.85 25.27Q505.70 25.30 505.60 25.35L505.60 45L497.80 45ZM525.75 45.40Q523.10 45.40 521.15 44.85Q519.20 44.30 518.15 42.42Q517.10 40.55 517.10 36.70L517.10 26.85Q517.10 22.85 519.35 21.35Q521.60 19.85 525.75 19.85Q529.90 19.85 532.15 21.25Q534.40 22.65 534.40 26.35L534.40 30.30L526.60 30.30L526.60 25.85Q526.60 25 526.38 24.67Q526.15 24.35 525.75 24.35Q525.40 24.35 525.15 24.67Q524.90 25 524.90 25.85L524.90 39.40Q524.90 40.25 525.15 40.58Q525.40 40.90 525.75 40.90Q526.15 40.90 526.38 40.58Q526.60 40.25 526.60 39.40L526.60 34.35L534.40 34.35L534.40 36.65Q534.40 40.55 533.35 42.42Q532.30 44.30 530.35 44.85Q528.40 45.40 525.75 45.40ZM544.80 45.40Q542.15 45.40 540.20 44.83Q538.25 44.25 537.20 42.35Q536.15 40.45 536.15 36.50L536.15 26.35Q536.15 22.55 538.40 21.15Q540.65 19.75 544.80 19.75Q548.95 19.75 551.20 21.15Q553.45 22.55 553.45 26.35L553.45 33.35L543.95 33.35L543.95 39.90Q543.95 40.75 544.20 41.08Q544.45 41.40 544.80 41.40Q545.20 41.40 545.43 41.08Q545.65 40.75 545.65 39.90L545.65 35.40L553.45 35.40L553.45 36.45Q553.45 40.45 552.40 42.35Q551.35 44.25 549.40 44.83Q547.45 45.40 544.80 45.40M543.95 30L545.65 30L545.65 25.85Q545.65 25 545.43 24.67Q545.20 24.35 544.80 24.35Q544.45 24.35 544.20 24.67Q543.95 25 543.95 25.85L543.95 30ZM563.70 45.40Q560.20 45.40 558.30 44.52Q556.40 43.65 555.65 41.88Q554.90 40.10 554.90 37.50L554.90 35.80L562.75 35.80L562.75 39.25Q562.75 40.25 562.90 40.77Q563.05 41.30 563.60 41.30Q564.10 41.30 564.28 40.90Q564.45 40.50 564.45 39.95L564.45 37.65Q564.45 36.40 563.93 35.83Q563.40 35.25 562.45 34.92Q561.50 34.60 560.30 34.10Q559.20 33.65 558.10 33Q557 32.35 556.28 31.20Q555.55 30.05 555.55 28.25L555.55 26.85Q555.55 23.30 557.43 21.57Q559.30 19.85 564.35 19.85Q567.75 19.85 569.58 20.67Q571.40 21.50 572.10 23.17Q572.80 24.85 572.80 27.35L572.80 28.95L565.25 28.95L565.25 25.90Q565.25 24.90 565.10 24.42Q564.95 23.95 564.40 23.95Q563.90 23.95 563.73 24.32Q563.55 24.70 563.55 25.25L563.55 27.50Q563.55 28.60 564.28 29.17Q565 29.75 566.05 30.02Q567.10 30.30 568 30.65Q569.20 31.05 570.30 31.70Q571.40 32.35 572.10 33.42Q572.80 34.50 572.80 36.20L572.80 38Q572.80 40.45 571.98 42.10Q571.15 43.75 569.18 44.58Q567.20 45.40 563.70 45.40Z"/></g><g transform="translate(0, 260)"><path d="M0 45L0 15.45L11.60 15.45Q14.90 15.45 16.38 16.88Q17.85 18.30 17.85 20.50L17.85 25.40Q17.85 27.60 17.35 29.52Q16.85 31.45 15.57 32.63Q14.30 33.80 12 33.80L8.30 33.80L8.30 45L0 45M8.30 29.50L8.90 29.50Q9.45 29.50 9.70 28.43Q9.95 27.35 9.95 24.60L9.95 24.10Q9.95 21.65 9.83 20.65Q9.70 19.65 9.05 19.65L8.30 19.65L8.30 29.50ZM24.25 45.40Q22.85 45.40 21.75 45.02Q20.65 44.65 20.00 43.60Q19.35 42.55 19.35 40.55L19.35 36.50Q19.35 34.30 20.63 32.90Q21.90 31.50 25.10 30.50Q26.55 30 27.30 29.63Q28.05 29.25 28.33 28.63Q28.60 28 28.60 26.75L28.60 25.15Q28.60 24.75 28.53 24.47Q28.45 24.20 28.28 24.02Q28.10 23.85 27.75 23.85Q27.25 23.85 27.08 24.47Q26.90 25.10 26.90 26.85L26.90 28.95L19.85 28.95L19.85 26.10Q19.85 24.25 20.40 22.82Q20.95 21.40 22.65 20.57Q24.35 19.75 27.75 19.75Q31.15 19.75 33.05 20.25Q34.95 20.75 35.75 22.02Q36.55 23.30 36.55 25.70L36.55 45L28.75 45L28.75 42.55Q28.50 43.80 27.18 44.60Q25.85 45.40 24.25 45.40M27.75 40.35Q28.35 40.35 28.48 39.80Q28.60 39.25 28.60 38L28.60 32.95Q28.50 33.15 28.15 33.33Q27.80 33.50 27.55 33.80Q27.20 34.15 27.05 34.50Q26.90 34.85 26.90 35.50L26.90 38.55Q26.90 39 26.95 39.42Q27 39.85 27.18 40.10Q27.35 40.35 27.75 40.35ZM47.05 45.40Q43.55 45.40 41.65 44.52Q39.75 43.65 39.00 41.88Q38.25 40.10 38.25 37.50L38.25 35.80L46.10 35.80L46.10 39.25Q46.10 40.25 46.25 40.77Q46.40 41.30 46.95 41.30Q47.45 41.30 47.63 40.90Q47.80 40.50 47.80 39.95L47.80 37.65Q47.80 36.40 47.28 35.83Q46.75 35.25 45.80 34.92Q44.85 34.60 43.65 34.10Q42.55 33.65 41.45 33Q40.35 32.35 39.63 31.20Q38.90 30.05 38.90 28.25L38.90 26.85Q38.90 23.30 40.78 21.57Q42.65 19.85 47.70 19.85Q51.10 19.85 52.93 20.67Q54.75 21.50 55.45 23.17Q56.15 24.85 56.15 27.35L56.15 28.95L48.60 28.95L48.60 25.90Q48.60 24.90 48.45 24.42Q48.30 23.95 47.75 23.95Q47.25 23.95 47.08 24.32Q46.90 24.70 46.90 25.25L46.90 27.50Q46.90 28.60 47.63 29.17Q48.35 29.75 49.40 30.02Q50.45 30.30 51.35 30.65Q52.55 31.05 53.65 31.70Q54.75 32.35 55.45 33.42Q56.15 34.50 56.15 36.20L56.15 38Q56.15 40.45 55.33 42.10Q54.50 43.75 52.53 44.58Q50.55 45.40 47.05 45.40ZM66.35 45.40Q62.85 45.40 60.95 44.52Q59.05 43.65 58.30 41.88Q57.55 40.10 57.55 37.50L57.55 35.80L65.40 35.80L65.40 39.25Q65.40 40.25 65.55 40.77Q65.70 41.30 66.25 41.30Q66.75 41.30 66.93 40.90Q67.10 40.50 67.10 39.95L67.10 37.65Q67.10 36.40 66.58 35.83Q66.05 35.25 65.10 34.92Q64.15 34.60 62.95 34.10Q61.85 33.65 60.75 33Q59.65 32.35 58.93 31.20Q58.20 30.05 58.20 28.25L58.20 26.85Q58.20 23.30 60.08 21.57Q61.95 19.85 67.00 19.85Q70.40 19.85 72.23 20.67Q74.05 21.50 74.75 23.17Q75.45 24.85 75.45 27.35L75.45 28.95L67.90 28.95L67.90 25.90Q67.90 24.90 67.75 24.42Q67.60 23.95 67.05 23.95Q66.55 23.95 66.38 24.32Q66.20 24.70 66.20 25.25L66.20 27.50Q66.20 28.60 66.93 29.17Q67.65 29.75 68.70 30.02Q69.75 30.30 70.65 30.65Q71.85 31.05 72.95 31.70Q74.05 32.35 74.75 33.42Q75.45 34.50 75.45 36.20L75.45 38Q75.45 40.45 74.63 42.10Q73.80 43.75 71.83 44.58Q69.85 45.40 66.35 45.40ZM77.40 45L77.40 20.25L85.20 20.25L85.20 45L77.40 45M81.25 17.75Q79.85 17.75 78.83 16.77Q77.80 15.80 77.80 14.45Q77.80 13.05 78.83 12.07Q79.85 11.10 81.25 11.10Q82.70 11.10 83.75 12.07Q84.80 13.05 84.80 14.40Q84.80 15.80 83.75 16.77Q82.70 17.75 81.25 17.75ZM96.10 45.40Q93.45 45.40 91.50 44.83Q89.55 44.25 88.50 42.35Q87.45 40.45 87.45 36.50L87.45 26.85Q87.45 22.80 89.70 21.30Q91.95 19.80 96.10 19.80Q100.25 19.80 102.50 21.30Q104.75 22.80 104.75 26.85L104.75 36.45Q104.75 40.45 103.70 42.35Q102.65 44.25 100.70 44.83Q98.75 45.40 96.10 45.40M96.10 40.90Q96.50 40.90 96.73 40.58Q96.95 40.25 96.95 39.40L96.95 25.85Q96.95 25 96.73 24.67Q96.50 24.35 96.10 24.35Q95.75 24.35 95.50 24.67Q95.25 25 95.25 25.85L95.25 39.40Q95.25 40.25 95.50 40.58Q95.75 40.90 96.10 40.90ZM107 45L107 20.25L113.65 20.25L114.25 23.35Q114.70 21.80 115.95 20.77Q117.20 19.75 118.80 19.75Q121 19.75 122.20 20.50Q123.40 21.25 123.85 22.70Q124.30 24.15 124.30 26.30L124.30 45L116.50 45L116.50 26.60Q116.50 26.25 116.45 26Q116.40 25.75 116.30 25.57Q116.20 25.40 116.05 25.30Q115.90 25.20 115.65 25.20Q115.55 25.20 115.38 25.22Q115.20 25.25 115.05 25.27Q114.90 25.30 114.80 25.35L114.80 45L107 45ZM130.90 45.40Q129.50 45.40 128.40 45.02Q127.30 44.65 126.65 43.60Q126 42.55 126 40.55L126 36.50Q126 34.30 127.27 32.90Q128.55 31.50 131.75 30.50Q133.20 30 133.95 29.63Q134.70 29.25 134.97 28.63Q135.25 28 135.25 26.75L135.25 25.15Q135.25 24.75 135.18 24.47Q135.10 24.20 134.93 24.02Q134.75 23.85 134.40 23.85Q133.90 23.85 133.72 24.47Q133.55 25.10 133.55 26.85L133.55 28.95L126.50 28.95L126.50 26.10Q126.50 24.25 127.05 22.82Q127.60 21.40 129.30 20.57Q131 19.75 134.40 19.75Q137.80 19.75 139.70 20.25Q141.60 20.75 142.40 22.02Q143.20 23.30 143.20 25.70L143.20 45L135.40 45L135.40 42.55Q135.15 43.80 133.82 44.60Q132.50 45.40 130.90 45.40M134.40 40.35Q135 40.35 135.13 39.80Q135.25 39.25 135.25 38L135.25 32.95Q135.15 33.15 134.80 33.33Q134.45 33.50 134.20 33.80Q133.85 34.15 133.70 34.50Q133.55 34.85 133.55 35.50L133.55 38.55Q133.55 39 133.60 39.42Q133.65 39.85 133.82 40.10Q134 40.35 134.40 40.35ZM154.35 45.25Q153.15 45.25 151.82 45.08Q150.50 44.90 149.38 44.33Q148.25 43.75 147.55 42.55Q146.85 41.35 146.85 39.25L146.85 24.75L144.40 24.75L144.40 20.90L147.55 20.25L148.60 15.75L154.65 15.75L154.65 20.25L158.85 20.25L158.85 24.75L154.65 24.75L154.65 37.90Q154.65 38.65 154.97 39.38Q155.30 40.10 156.50 40.10Q157.10 40.10 157.97 40.02Q158.85 39.95 158.85 39.95L158.85 44.55Q158.85 44.55 157.45 44.90Q156.05 45.25 154.35 45.25ZM168.85 45.40Q166.20 45.40 164.25 44.83Q162.30 44.25 161.25 42.35Q160.20 40.45 160.20 36.50L160.20 26.35Q160.20 22.55 162.45 21.15Q164.70 19.75 168.85 19.75Q173 19.75 175.25 21.15Q177.50 22.55 177.50 26.35L177.50 33.35L168 33.35L168 39.90Q168 40.75 168.25 41.08Q168.50 41.40 168.85 41.40Q169.25 41.40 169.47 41.08Q169.70 40.75 169.70 39.90L169.70 35.40L177.50 35.40L177.50 36.45Q177.50 40.45 176.45 42.35Q175.40 44.25 173.45 44.83Q171.50 45.40 168.85 45.40M168 30L169.70 30L169.70 25.85Q169.70 25 169.47 24.67Q169.25 24.35 168.85 24.35Q168.50 24.35 168.25 24.67Q168 25 168 25.85L168 30ZM191.35 45.40Q189.95 45.40 188.85 45.02Q187.75 44.65 187.10 43.60Q186.45 42.55 186.45 40.55L186.45 36.50Q186.45 34.30 187.72 32.90Q189 31.50 192.20 30.50Q193.65 30 194.40 29.63Q195.15 29.25 195.43 28.63Q195.70 28 195.70 26.75L195.70 25.15Q195.70 24.75 195.63 24.47Q195.55 24.20 195.38 24.02Q195.20 23.85 194.85 23.85Q194.35 23.85 194.18 24.47Q194 25.10 194 26.85L194 28.95L186.95 28.95L186.95 26.10Q186.95 24.25 187.50 22.82Q188.05 21.40 189.75 20.57Q191.45 19.75 194.85 19.75Q198.25 19.75 200.15 20.25Q202.05 20.75 202.85 22.02Q203.65 23.30 203.65 25.70L203.65 45L195.85 45L195.85 42.55Q195.60 43.80 194.28 44.60Q192.95 45.40 191.35 45.40M194.85 40.35Q195.45 40.35 195.57 39.80Q195.70 39.25 195.70 38L195.70 32.95Q195.60 33.15 195.25 33.33Q194.90 33.50 194.65 33.80Q194.30 34.15 194.15 34.50Q194 34.85 194 35.50L194 38.55Q194 39 194.05 39.42Q194.10 39.85 194.28 40.10Q194.45 40.35 194.85 40.35ZM216.40 45.35Q214.25 45.35 213.05 44.42Q211.85 43.50 211.55 42.85L211.40 45L205.90 45L205.90 13.50L213.70 13.50L213.70 22.10Q214.10 21.35 215.03 20.55Q215.95 19.75 217.80 19.75Q219.05 19.75 220.28 20.15Q221.50 20.55 222.35 21.80Q223.20 23.05 223.20 25.55L223.20 37.30Q223.20 40.15 222.68 41.77Q222.15 43.40 221.22 44.15Q220.30 44.90 219.08 45.13Q217.85 45.35 216.40 45.35M214.55 40.10Q214.95 40.10 215.13 39.90Q215.30 39.70 215.35 39.30Q215.40 38.90 215.40 38.35L215.40 26.20Q215.40 25.35 215.18 25.02Q214.95 24.70 214.55 24.70Q214.20 24.70 213.95 25.02Q213.70 25.35 213.70 26.20L213.70 38.35Q213.70 39.20 213.88 39.65Q214.05 40.10 214.55 40.10ZM233.85 45.40Q231.20 45.40 229.25 44.83Q227.30 44.25 226.25 42.35Q225.20 40.45 225.20 36.50L225.20 26.85Q225.20 22.80 227.45 21.30Q229.70 19.80 233.85 19.80Q238.00 19.80 240.25 21.30Q242.50 22.80 242.50 26.85L242.50 36.45Q242.50 40.45 241.45 42.35Q240.40 44.25 238.45 44.83Q236.50 45.40 233.85 45.40M233.85 40.90Q234.25 40.90 234.48 40.58Q234.70 40.25 234.70 39.40L234.70 25.85Q234.70 25 234.48 24.67Q234.25 24.35 233.85 24.35Q233.50 24.35 233.25 24.67Q233.00 25 233.00 25.85L233.00 39.40Q233.00 40.25 233.25 40.58Q233.50 40.90 233.85 40.90ZM250.25 45.35Q248.05 45.35 246.85 44.60Q245.65 43.85 245.20 42.40Q244.75 40.95 244.75 38.80L244.75 20.25L252.55 20.25L252.55 38.50Q252.55 38.95 252.65 39.25Q252.75 39.55 252.95 39.73Q253.15 39.90 253.40 39.90Q253.55 39.90 253.70 39.88Q253.85 39.85 254.00 39.83Q254.15 39.80 254.25 39.75L254.25 20.25L262.05 20.25L262.05 45L255.40 45L254.80 41.75Q254.35 43.30 253.10 44.33Q251.85 45.35 250.25 45.35ZM273.45 45.25Q272.25 45.25 270.93 45.08Q269.60 44.90 268.48 44.33Q267.35 43.75 266.65 42.55Q265.95 41.35 265.95 39.25L265.95 24.75L263.50 24.75L263.50 20.90L266.65 20.25L267.70 15.75L273.75 15.75L273.75 20.25L277.95 20.25L277.95 24.75L273.75 24.75L273.75 37.90Q273.75 38.65 274.07 39.38Q274.40 40.10 275.60 40.10Q276.20 40.10 277.07 40.02Q277.95 39.95 277.95 39.95L277.95 44.55Q277.95 44.55 276.55 44.90Q275.15 45.25 273.45 45.25ZM295.70 45.40Q293.05 45.40 291.10 44.85Q289.15 44.30 288.10 42.42Q287.05 40.55 287.05 36.70L287.05 26.85Q287.05 22.85 289.30 21.35Q291.55 19.85 295.70 19.85Q299.85 19.85 302.10 21.25Q304.35 22.65 304.35 26.35L304.35 30.30L296.55 30.30L296.55 25.85Q296.55 25 296.32 24.67Q296.10 24.35 295.70 24.35Q295.35 24.35 295.10 24.67Q294.85 25 294.85 25.85L294.85 39.40Q294.85 40.25 295.10 40.58Q295.35 40.90 295.70 40.90Q296.10 40.90 296.32 40.58Q296.55 40.25 296.55 39.40L296.55 34.35L304.35 34.35L304.35 36.65Q304.35 40.55 303.30 42.42Q302.25 44.30 300.30 44.85Q298.35 45.40 295.70 45.40ZM306.35 45L306.35 20.25L314.15 20.25L314.15 45L306.35 45M310.20 17.75Q308.80 17.75 307.78 16.77Q306.75 15.80 306.75 14.45Q306.75 13.05 307.78 12.07Q308.80 11.10 310.20 11.10Q311.65 11.10 312.70 12.07Q313.75 13.05 313.75 14.40Q313.75 15.80 312.70 16.77Q311.65 17.75 310.20 17.75ZM316.65 45L316.65 20.25L323.30 20.25L323.90 23.35Q324.35 21.80 325.60 20.77Q326.85 19.75 328.45 19.75Q330.65 19.75 331.85 20.50Q333.05 21.25 333.50 22.70Q333.95 24.15 333.95 26.30L333.95 45L326.15 45L326.15 26.60Q326.15 26.25 326.10 26Q326.05 25.75 325.95 25.57Q325.85 25.40 325.70 25.30Q325.55 25.20 325.30 25.20Q325.20 25.20 325.03 25.22Q324.85 25.25 324.70 25.27Q324.55 25.30 324.45 25.35L324.45 45L316.65 45ZM344.60 45.40Q341.95 45.40 340.00 44.83Q338.05 44.25 337.00 42.35Q335.95 40.45 335.95 36.50L335.95 26.35Q335.95 22.55 338.20 21.15Q340.45 19.75 344.60 19.75Q348.75 19.75 351.00 21.15Q353.25 22.55 353.25 26.35L353.25 33.35L343.75 33.35L343.75 39.90Q343.75 40.75 344.00 41.08Q344.25 41.40 344.60 41.40Q345.00 41.40 345.23 41.08Q345.45 40.75 345.45 39.90L345.45 35.40L353.25 35.40L353.25 36.45Q353.25 40.45 352.20 42.35Q351.15 44.25 349.20 44.83Q347.25 45.40 344.60 45.40M343.75 30L345.45 30L345.45 25.85Q345.45 25 345.23 24.67Q345.00 24.35 344.60 24.35Q344.25 24.35 344.00 24.67Q343.75 25 343.75 25.85L343.75 30ZM355.25 45L355.25 20.25L361.90 20.25L362.50 23.35Q362.95 21.80 364.20 20.77Q365.45 19.75 367.05 19.75Q369.85 19.75 371.03 20.95Q372.20 22.15 372.50 24.45L371.80 24.40Q371.95 22.50 373.33 21.13Q374.70 19.75 376.55 19.75Q379.85 19.75 380.95 21.40Q382.05 23.05 382.05 26.30L382.05 45L374.25 45L374.25 26.60Q374.25 25.90 374.03 25.55Q373.80 25.20 373.40 25.20Q373.20 25.20 372.95 25.22Q372.70 25.25 372.55 25.35L372.55 45L364.75 45L364.75 26.60Q364.75 25.90 364.53 25.55Q364.30 25.20 363.90 25.20Q363.70 25.20 363.45 25.22Q363.20 25.25 363.05 25.35L363.05 45L355.25 45ZM388.65 45.40Q387.25 45.40 386.15 45.02Q385.05 44.65 384.40 43.60Q383.75 42.55 383.75 40.55L383.75 36.50Q383.75 34.30 385.03 32.90Q386.30 31.50 389.50 30.50Q390.95 30 391.70 29.63Q392.45 29.25 392.73 28.63Q393.00 28 393.00 26.75L393.00 25.15Q393.00 24.75 392.93 24.47Q392.85 24.20 392.68 24.02Q392.50 23.85 392.15 23.85Q391.65 23.85 391.48 24.47Q391.30 25.10 391.30 26.85L391.30 28.95L384.25 28.95L384.25 26.10Q384.25 24.25 384.80 22.82Q385.35 21.40 387.05 20.57Q388.75 19.75 392.15 19.75Q395.55 19.75 397.45 20.25Q399.35 20.75 400.15 22.02Q400.95 23.30 400.95 25.70L400.95 45L393.15 45L393.15 42.55Q392.90 43.80 391.58 44.60Q390.25 45.40 388.65 45.40M392.15 40.35Q392.75 40.35 392.88 39.80Q393.00 39.25 393.00 38L393.00 32.95Q392.90 33.15 392.55 33.33Q392.20 33.50 391.95 33.80Q391.60 34.15 391.45 34.50Q391.30 34.85 391.30 35.50L391.30 38.55Q391.30 39 391.35 39.42Q391.40 39.85 391.58 40.10Q391.75 40.35 392.15 40.35ZM412.10 45.25Q410.90 45.25 409.58 45.08Q408.25 44.90 407.13 44.33Q406.00 43.75 405.30 42.55Q404.60 41.35 404.60 39.25L404.60 24.75L402.15 24.75L402.15 20.90L405.30 20.25L406.35 15.75L412.40 15.75L412.40 20.25L416.60 20.25L416.60 24.75L412.40 24.75L412.40 37.90Q412.40 38.65 412.73 39.38Q413.05 40.10 414.25 40.10Q414.85 40.10 415.73 40.02Q416.60 39.95 416.60 39.95L416.60 44.55Q416.60 44.55 415.20 44.90Q413.80 45.25 412.10 45.25ZM418.45 45L418.45 20.25L426.25 20.25L426.25 45L418.45 45M422.30 17.75Q420.90 17.75 419.88 16.77Q418.85 15.80 418.85 14.45Q418.85 13.05 419.88 12.07Q420.90 11.10 422.30 11.10Q423.75 11.10 424.80 12.07Q425.85 13.05 425.85 14.40Q425.85 15.80 424.80 16.77Q423.75 17.75 422.30 17.75ZM437.15 45.40Q434.50 45.40 432.55 44.85Q430.60 44.30 429.55 42.42Q428.50 40.55 428.50 36.70L428.50 26.85Q428.50 22.85 430.75 21.35Q433.00 19.85 437.15 19.85Q441.30 19.85 443.55 21.25Q445.80 22.65 445.80 26.35L445.80 30.30L438.00 30.30L438.00 25.85Q438.00 25 437.78 24.67Q437.55 24.35 437.15 24.35Q436.80 24.35 436.55 24.67Q436.30 25 436.30 25.85L436.30 39.40Q436.30 40.25 436.55 40.58Q436.80 40.90 437.15 40.90Q437.55 40.90 437.78 40.58Q438.00 40.25 438.00 39.40L438.00 34.35L445.80 34.35L445.80 36.65Q445.80 40.55 444.75 42.42Q443.70 44.30 441.75 44.85Q439.80 45.40 437.15 45.40ZM463.55 45.40Q460.05 45.40 458.15 44.52Q456.25 43.65 455.50 41.88Q454.75 40.10 454.75 37.50L454.75 35.80L462.60 35.80L462.60 39.25Q462.60 40.25 462.75 40.77Q462.90 41.30 463.45 41.30Q463.95 41.30 464.13 40.90Q464.30 40.50 464.30 39.95L464.30 37.65Q464.30 36.40 463.78 35.83Q463.25 35.25 462.30 34.92Q461.35 34.60 460.15 34.10Q459.05 33.65 457.95 33Q456.85 32.35 456.13 31.20Q455.40 30.05 455.40 28.25L455.40 26.85Q455.40 23.30 457.28 21.57Q459.15 19.85 464.20 19.85Q467.60 19.85 469.43 20.67Q471.25 21.50 471.95 23.17Q472.65 24.85 472.65 27.35L472.65 28.95L465.10 28.95L465.10 25.90Q465.10 24.90 464.95 24.42Q464.80 23.95 464.25 23.95Q463.75 23.95 463.58 24.32Q463.40 24.70 463.40 25.25L463.40 27.50Q463.40 28.60 464.13 29.17Q464.85 29.75 465.90 30.02Q466.95 30.30 467.85 30.65Q469.05 31.05 470.15 31.70Q471.25 32.35 471.95 33.42Q472.65 34.50 472.65 36.20L472.65 38Q472.65 40.45 471.83 42.10Q471.00 43.75 469.03 44.58Q467.05 45.40 463.55 45.40ZM483.50 45.25Q482.30 45.25 480.98 45.08Q479.65 44.90 478.53 44.33Q477.40 43.75 476.70 42.55Q476.00 41.35 476.00 39.25L476.00 24.75L473.55 24.75L473.55 20.90L476.70 20.25L477.75 15.75L483.80 15.75L483.80 20.25L488.00 20.25L488.00 24.75L483.80 24.75L483.80 37.90Q483.80 38.65 484.13 39.38Q484.45 40.10 485.65 40.10Q486.25 40.10 487.13 40.02Q488.00 39.95 488.00 39.95L488.00 44.55Q488.00 44.55 486.60 44.90Q485.20 45.25 483.50 45.25ZM498.00 45.40Q495.35 45.40 493.40 44.83Q491.45 44.25 490.40 42.35Q489.35 40.45 489.35 36.50L489.35 26.85Q489.35 22.80 491.60 21.30Q493.85 19.80 498.00 19.80Q502.15 19.80 504.40 21.30Q506.65 22.80 506.65 26.85L506.65 36.45Q506.65 40.45 505.60 42.35Q504.55 44.25 502.60 44.83Q500.65 45.40 498.00 45.40M498.00 40.90Q498.40 40.90 498.63 40.58Q498.85 40.25 498.85 39.40L498.85 25.85Q498.85 25 498.63 24.67Q498.40 24.35 498.00 24.35Q497.65 24.35 497.40 24.67Q497.15 25 497.15 25.85L497.15 39.40Q497.15 40.25 497.40 40.58Q497.65 40.90 498.00 40.90ZM508.90 45L508.90 20.25L515.55 20.25L516.15 23.45Q516.50 22.55 517.13 21.85Q517.75 21.15 518.55 20.75Q520.35 19.75 522.60 20.20L522.60 26.15Q522.60 26.15 521.78 26.05Q520.95 25.95 519.88 26.05Q518.80 26.15 518.10 26.70Q517.25 27.35 516.98 28.47Q516.70 29.60 516.70 31.05L516.70 45L508.90 45ZM529.10 50.80Q527.40 50.80 525.73 50.55Q524.05 50.30 523.10 50.05L523.10 46.05Q523.50 46.15 524.10 46.25Q524.70 46.35 525.35 46.35Q525.90 46.35 526.63 46.17Q527.35 46 527.40 44.95Q527.40 44.60 527.33 44.20Q527.25 43.80 527.15 43.30L522.60 20.25L530.65 20.25L532.45 37.70L532.55 37.70L534.40 20.25L541.80 20.25L537.50 41.90Q536.55 46.75 534.53 48.77Q532.50 50.80 529.10 50.80ZM551.70 45.25Q550.50 45.25 549.18 45.08Q547.85 44.90 546.73 44.33Q545.60 43.75 544.90 42.55Q544.20 41.35 544.20 39.25L544.20 24.75L541.75 24.75L541.75 20.90L544.90 20.25L545.95 15.75L552.00 15.75L552.00 20.25L556.20 20.25L556.20 24.75L552.00 24.75L552.00 37.90Q552.00 38.65 552.33 39.38Q552.65 40.10 553.85 40.10Q554.45 40.10 555.33 40.02Q556.20 39.95 556.20 39.95L556.20 44.55Q556.20 44.55 554.80 44.90Q553.40 45.25 551.70 45.25ZM566.20 45.40Q563.55 45.40 561.60 44.83Q559.65 44.25 558.60 42.35Q557.55 40.45 557.55 36.50L557.55 26.35Q557.55 22.55 559.80 21.15Q562.05 19.75 566.20 19.75Q570.35 19.75 572.60 21.15Q574.85 22.55 574.85 26.35L574.85 33.35L565.35 33.35L565.35 39.90Q565.35 40.75 565.60 41.08Q565.85 41.40 566.20 41.40Q566.60 41.40 566.83 41.08Q567.05 40.75 567.05 39.90L567.05 35.40L574.85 35.40L574.85 36.45Q574.85 40.45 573.80 42.35Q572.75 44.25 570.80 44.83Q568.85 45.40 566.20 45.40M565.35 30L567.05 30L567.05 25.85Q567.05 25 566.83 24.67Q566.60 24.35 566.20 24.35Q565.85 24.35 565.60 24.67Q565.35 25 565.35 25.85L565.35 30ZM576.85 45L576.85 13.50L584.65 13.50L584.65 45L576.85 45ZM587.15 45L587.15 13.50L594.95 13.50L594.95 45L587.15 45ZM597.45 45L597.45 20.25L605.25 20.25L605.25 45L597.45 45M601.30 17.75Q599.90 17.75 598.88 16.77Q597.85 15.80 597.85 14.45Q597.85 13.05 598.88 12.07Q599.90 11.10 601.30 11.10Q602.75 11.10 603.80 12.07Q604.85 13.05 604.85 14.40Q604.85 15.80 603.80 16.77Q602.75 17.75 601.30 17.75ZM607.75 45L607.75 20.25L614.40 20.25L615 23.35Q615.45 21.80 616.70 20.77Q617.95 19.75 619.55 19.75Q621.75 19.75 622.95 20.50Q624.15 21.25 624.60 22.70Q625.05 24.15 625.05 26.30L625.05 45L617.25 45L617.25 26.60Q617.25 26.25 617.20 26Q617.15 25.75 617.05 25.57Q616.95 25.40 616.80 25.30Q616.65 25.20 616.40 25.20Q616.30 25.20 616.13 25.22Q615.95 25.25 615.80 25.27Q615.65 25.30 615.55 25.35L615.55 45L607.75 45ZM636.15 51.05Q635.30 51.05 634.10 50.98Q632.90 50.90 631.72 50.80Q630.55 50.70 629.72 50.60Q628.90 50.50 628.75 50.45L628.75 46.40Q629.50 46.55 630.92 46.65Q632.35 46.75 633.25 46.75Q634.15 46.75 634.77 46.60Q635.40 46.45 635.80 46.15Q636.20 45.85 636.38 45.35Q636.55 44.85 636.55 44.20L636.55 40.55Q636.35 40.90 636.02 41.60Q635.70 42.30 634.85 42.88Q634 43.45 632.15 43.45Q630.80 43.45 629.82 43.10Q628.85 42.75 628.25 41.85Q627.65 40.95 627.35 39.33Q627.05 37.70 627.05 35.20L627.05 26.10Q627.05 23.10 628.40 21.42Q629.75 19.75 632.30 19.75Q634.05 19.75 634.97 20.20Q635.90 20.65 636.38 21.38Q636.85 22.10 637.15 23L636.20 23.20L637.35 20.25L644.35 20.25L644.35 40.05Q644.35 41.70 644.17 43.60Q644 45.50 643.27 47.20Q642.55 48.90 640.88 49.98Q639.20 51.05 636.15 51.05M635.70 38.90Q635.95 38.90 636.15 38.77Q636.35 38.65 636.45 38.30Q636.55 37.95 636.55 37.40L636.55 25.05Q636.45 25 636.35 24.97Q636.25 24.95 636.10 24.92Q635.95 24.90 635.70 24.90Q635.35 24.90 635.10 25.22Q634.85 25.55 634.85 26.40L634.85 37.35Q634.85 37.80 634.90 38.10Q634.95 38.40 635.07 38.58Q635.20 38.75 635.35 38.83Q635.50 38.90 635.70 38.90Z"/></g></g></svg>