<svg xmlns="http://www.w3.org/2000/svg" viewBox="0 0 200 200" width="200" height="200">
  <defs>
    <linearGradient id="ytGradient" x1="0" x2="1" y1="0" y2="1">
      <stop offset="0" stop-color="#ff0000"/>
      <stop offset="1" stop-color="#e11d48"/>
    </linearGradient>
  </defs>

  <!-- Kirby dots (orbit further away) -->
  <circle cx="30" cy="40" r="7" fill="#facc15" opacity="0.7"/>
  <circle cx="165" cy="55" r="5" fill="#38bdf8" opacity="0.7"/>
  <circle cx="50" cy="175" r="6" fill="#a78bfa" opacity="0.7"/>
  <circle cx="150" cy="165" r="8" fill="#34d399" opacity="0.7"/>
  <circle cx="100" cy="25" r="4" fill="#f472b6" opacity="0.7"/>

  <!-- Bubble -->
  <circle cx="100" cy="100" r="60" fill="url(#ytGradient)" />

  <!-- Highlight -->
  <ellipse cx="75" cy="70" rx="34" ry="16" fill="#ffffff40" transform="rotate(-20 75 70)"/>

  <!-- YouTube play logo -->
  <g transform="translate(100,100) scale(2)" fill="#fff">
    <path d="M20-10c-0.7-2.6-2.7-4.6-5.3-5.3C11-16 0-16 0-16s-11 0-14.7.7c-2.6.7-4.6 2.7-5.3 5.3C-20-6.7-20 0-20 0s0 6.7.7 10c.7 2.6 2.7 4.6 5.3 5.3C-11 16 0 16 0 16s11 0 14.7-.7c2.6-.7 4.6-2.7 5.3-5.3C20 6.7 20 0 20 0s0-6.7-.7-10zM-5 7V-7l12 7z"/>
  </g>
</svg>
